<svg width="14" height="16" viewBox="0 0 14 16" fill="none" xmlns="http://www.w3.org/2000/svg">
<path d="M9.61793 2.4266e-07H6.55799C5.17168 -1.18436e-05 4.07362 -2.14179e-05 3.21426 0.119153C2.32985 0.241801 1.61401 0.500217 1.04948 1.08251C0.484956 1.6648 0.234424 2.40316 0.115517 3.31541C-2.07573e-05 4.20182 -1.14822e-05 5.33442 2.35255e-07 6.76435V11.4768C2.35255e-07 12.6942 0.722879 13.7375 1.75006 14.1749C1.69719 13.4408 1.69723 12.4106 1.69728 11.5536L1.69728 7.58635L1.69728 7.50951C1.69722 6.47487 1.69718 5.5834 1.79023 4.86951C1.88995 4.10444 2.11483 3.37107 2.69153 2.77623C3.26822 2.18139 3.97921 1.94943 4.72095 1.84656C5.41305 1.75058 6.27732 1.75064 7.2804 1.75069L7.35489 1.7507H9.61793L9.69242 1.75069C10.6955 1.75064 11.5579 1.75058 12.25 1.84656C11.836 0.765116 10.8136 2.4266e-07 9.61793 2.4266e-07Z" fill="#CBE3EF"/>
<path d="M2.625 7.37255C2.625 5.15417 2.625 4.04499 3.29133 3.35583C3.95766 2.66667 5.03011 2.66667 7.175 2.66667H9.45C11.5949 2.66667 12.6673 2.66667 13.3337 3.35583C14 4.04499 14 5.15417 14 7.37255V11.2941C14 13.5125 14 14.6217 13.3337 15.3108C12.6673 16 11.5949 16 9.45 16H7.175C5.03011 16 3.95766 16 3.29133 15.3108C2.625 14.6217 2.625 13.5125 2.625 11.2941V7.37255Z" fill="#CBE3EF"/>
</svg>
