<svg width="138" height="138" viewBox="0 0 138 138" fill="none" xmlns="http://www.w3.org/2000/svg">
    <path fill-rule="evenodd" clip-rule="evenodd"
        d="M69 138C55.9892 138 49.4839 138 45.4419 133.958C41.4 129.916 41.4 123.411 41.4 110.4C41.4 97.3892 41.4 90.8839 45.4419 86.8419C49.4839 82.8 55.9892 82.8 69 82.8C82.0108 82.8 88.5161 82.8 92.5581 86.8419C96.6 90.8839 96.6 97.3892 96.6 110.4C96.6 123.411 96.6 129.916 92.5581 133.958C88.5161 138 82.0108 138 69 138ZM81.4527 116.719L72.2527 125.919C70.4563 127.716 67.5437 127.716 65.7473 125.919L56.5473 116.719C54.7509 114.923 54.7509 112.01 56.5473 110.214C58.3437 108.418 61.2563 108.418 63.0527 110.214L64.4 111.561V98.1333C64.4 95.5928 66.4595 93.5333 69 93.5333C71.5405 93.5333 73.6 95.5928 73.6 98.1333V111.561L74.9473 110.214C76.7437 108.418 79.6563 108.418 81.4527 110.214C83.2491 112.01 83.2491 114.923 81.4527 116.719Z"
        fill="currentColor" />
    <path
        d="M31.0501 110.4L31.0501 109.783C31.0493 103.81 31.0487 98.3334 31.6476 93.8786C32.3072 88.973 33.8589 83.788 38.1235 79.5235C42.388 75.259 47.573 73.7072 52.4786 73.0476C56.9334 72.4487 62.4097 72.4493 68.3826 72.4501H69.6176C75.5905 72.4493 81.0668 72.4487 85.5216 73.0476C90.4272 73.7072 95.6122 75.2589 99.8767 79.5235C104.141 83.788 105.693 88.973 106.353 93.8786C106.943 98.2677 106.951 103.648 106.95 109.518C124.701 105.722 138 90.1136 138 71.4353C138 54.3798 126.911 39.8836 111.47 34.6033C109.276 15.1366 92.5696 0 72.2857 0C50.5099 0 32.8571 17.4451 32.8571 38.9647C32.8571 43.7244 33.7207 48.2848 35.3015 52.5012C33.4477 52.1415 31.5319 51.9529 29.5714 51.9529C13.2396 51.9529 0 65.0368 0 81.1765C0 97.3162 13.2396 110.4 29.5714 110.4L31.0501 110.4Z"
        fill="currentColor" />
</svg>