<svg width="124" height="127" viewBox="0 0 124 127" fill="none" xmlns="http://www.w3.org/2000/svg">
<path fill-rule="evenodd" clip-rule="evenodd" d="M97.4824 127C91.1485 127 86.0139 121.889 86.0139 115.584V101.315C86.0139 95.0099 91.1485 89.8989 97.4824 89.8989H111.818C118.152 89.8989 123.287 95.0099 123.287 101.315V115.584C123.287 121.889 118.152 127 111.818 127H97.4824ZM116.121 101.06C117.167 99.8763 117.051 98.0729 115.862 97.0317C114.674 95.9904 112.862 96.1055 111.816 97.2888L100.302 110.313L97.4844 107.126C96.4383 105.943 94.6267 105.828 93.4379 106.869C92.2492 107.91 92.1336 109.714 93.1796 110.897L97.6112 115.91C99.0383 117.524 101.565 117.524 102.992 115.91L116.121 101.06Z" fill="#00D008"/>
<path fill-rule="evenodd" clip-rule="evenodd" d="M45.8741 114.157H68.8111C74.379 114.157 79.2302 114.157 83.4792 114.043C83.262 113.165 83.1467 112.248 83.1467 111.303V97.0337C83.1467 90.729 88.2814 85.618 94.6153 85.618H108.951C110.931 85.618 112.795 86.1177 114.42 86.9973C114.685 81.9007 114.685 75.821 114.685 68.4944V65.9995C114.685 61.0176 114.685 57.2748 114.441 54.2253L91.2042 54.2254C84.9133 54.2258 79.3533 54.2263 74.8719 53.6265C70.0143 52.9765 65.1575 51.4838 61.1936 47.5382C57.2296 43.5925 55.7301 38.758 55.077 33.9227C54.4745 29.462 54.4749 23.9279 54.4754 17.6659L54.5284 1.48727C54.53 1.01673 54.5704 0.551339 54.6475 0.0950997C52.3044 0 49.5199 0 46.0449 0C24.3058 0 13.4362 0 6.7181 6.68718C0 13.3744 0 24.1372 0 45.6629V68.4944C0 90.0201 0 100.783 6.7181 107.47C13.4362 114.157 24.2488 114.157 45.8741 114.157ZM22.937 67.0674C20.5618 67.0674 18.6363 68.984 18.6363 71.3483C18.6363 73.7126 20.5618 75.6292 22.937 75.6292H68.8111C71.1863 75.6292 73.1118 73.7126 73.1118 71.3483C73.1118 68.984 71.1863 67.0674 68.8111 67.0674H22.937ZM22.937 87.0449C20.5618 87.0449 18.6363 88.9616 18.6363 91.3258C18.6363 93.6901 20.5618 95.6067 22.937 95.6067H54.4755C56.8507 95.6067 58.7761 93.6901 58.7761 91.3258C58.7761 88.9616 56.8507 87.0449 54.4755 87.0449H22.937ZM76.7986 11.7225L99.4992 32.0591C106.476 38.309 110.198 41.644 112.277 45.6635H91.7481C78.2324 45.6635 71.4745 45.6635 67.2757 41.484C63.0768 37.3046 63.0768 30.5778 63.0768 17.1242L63.1297 1.51615C67.0974 3.03169 70.3311 5.92865 76.7986 11.7225Z" fill="#00D008"/>
</svg>
