<svg width="80" height="80" viewBox="0 0 80 80" fill="none"
    xmlns="http://www.w3.org/2000/svg">
    <path fill-rule="evenodd" clip-rule="evenodd" d="M40 80C32.4575 80 28.6863 80 26.3431 77.6568C24 75.3137 24 71.5425 24 64C24 56.4575 24 52.6863 26.3431 50.3431C28.6863 48 32.4575 48 40 48C47.5425 48 51.3137 48 53.6569 50.3431C56 52.6863 56 56.4575 56 64C56 71.5425 56 75.3137 53.6569 77.6568C51.3137 80 47.5425 80 40 80ZM47.2189 67.6634L41.8856 72.9967C40.8442 74.0381 39.1558 74.0381 38.1144 72.9967L32.781 67.6634C31.7397 66.622 31.7397 64.9336 32.781 63.8922C33.8224 62.8508 35.5109 62.8508 36.5523 63.8922L37.3333 64.6732V56.8889C37.3333 55.4161 38.5272 54.2222 40 54.2222C41.4728 54.2222 42.6667 55.4161 42.6667 56.8889V64.6732L43.4477 63.8922C44.4891 62.8508 46.1776 62.8508 47.2189 63.8922C48.2603 64.9336 48.2603 66.622 47.2189 67.6634Z" fill="currentColor"/>
    <path d="M18.0001 64.0001L18 63.6421C17.9996 60.1796 17.9992 57.0049 18.3465 54.4224C18.7288 51.5786 19.6284 48.5727 22.1006 46.1006C24.5727 43.6284 27.5786 42.7288 30.4224 42.3465C33.0049 41.9992 36.1795 41.9996 39.6421 42H40.358C43.8206 41.9996 46.9952 41.9992 49.5777 42.3465C52.4216 42.7288 55.4274 43.6284 57.8995 46.1006C60.3717 48.5727 61.2713 51.5786 61.6537 54.4224C61.9957 56.9668 62.0004 60.0859 62.0001 63.4889C72.2905 61.2882 80 52.2397 80 41.4118C80 31.5245 73.5719 23.1209 64.6203 20.0599C63.3485 8.77484 53.6635 0 41.9048 0C29.2811 0 19.0476 10.1131 19.0476 22.5882C19.0476 25.3475 19.5482 27.9912 20.4646 30.4355C19.39 30.2269 18.2793 30.1176 17.1429 30.1176C7.67512 30.1176 0 37.7025 0 47.0588C0 56.4152 7.67512 64 17.1429 64L18.0001 64.0001Z" fill="currentColor"/>
</svg>
