<svg width="26" height="34" viewBox="0 0 26 34" fill="none" xmlns="http://www.w3.org/2000/svg">
    <path
        d="M0 17.6655V22.8374C0 26.4945 0 28.323 1.14228 29.4591C1.42482 29.7401 1.74995 29.9517 2.13496 30.1108C2.12623 30.0533 2.11798 29.9957 2.11017 29.9379C1.94981 28.7517 1.9499 27.2703 1.95 25.551L1.95 15.0795L1.95 14.9518V14.9518C1.9499 13.2325 1.94982 11.7511 2.11017 10.5648C2.11797 10.5071 2.12622 10.4496 2.13494 10.3921C1.74994 10.5513 1.42482 10.7628 1.14228 11.0438C0 12.1799 0 14.0084 0 17.6655Z"
        fill="currentColor" />
    <path
        d="M26 17.6655V22.8374C26 26.4945 26 28.323 24.8577 29.4591C24.5752 29.7401 24.25 29.9517 23.865 30.1108C23.8738 30.0533 23.882 29.9957 23.8898 29.9379C24.0502 28.7517 24.0501 27.2703 24.05 25.551V25.551V14.9518V14.9518C24.0501 13.2325 24.0502 11.7511 23.8898 10.5648C23.882 10.5071 23.8738 10.4496 23.8651 10.3921C24.2501 10.5513 24.5752 10.7628 24.8577 11.0438C26 12.1799 26 14.0084 26 17.6655Z"
        fill="currentColor" />
    <path fill-rule="evenodd" clip-rule="evenodd"
        d="M17.0699 7.34921C16.2836 7.32129 15.3699 7.32129 14.3009 7.32129H11.7009C8.02392 7.32129 6.18545 7.32129 5.04316 8.4574C3.90088 9.59351 3.90088 11.422 3.90088 15.0791V25.4229C3.90088 29.08 3.90088 30.9085 5.04316 32.0446C6.18545 33.1807 8.02392 33.1807 11.7009 33.1807H14.3009C17.9778 33.1807 19.8163 33.1807 20.9586 32.0446C22.1009 30.9085 22.1009 29.08 22.1009 25.4229V15.0791C22.1009 14.4353 22.1009 13.8481 22.0946 13.3114C21.4053 13.9263 20.4961 14.3 19.4996 14.3C17.3457 14.3 15.5996 12.554 15.5996 10.4C15.5996 9.16486 16.1738 8.06379 17.0699 7.34921ZM9.10088 25.7462C8.5624 25.7462 8.12588 26.1803 8.12588 26.7159C8.12588 27.2514 8.5624 27.6856 9.10088 27.6856H13.0009C13.5394 27.6856 13.9759 27.2514 13.9759 26.7159C13.9759 26.1803 13.5394 25.7462 13.0009 25.7462H9.10088ZM8.12588 21.544C8.12588 21.0084 8.5624 20.5743 9.10088 20.5743H16.9009C17.4394 20.5743 17.8759 21.0084 17.8759 21.544C17.8759 22.0796 17.4394 22.5137 16.9009 22.5137H9.10088C8.5624 22.5137 8.12588 22.0796 8.12588 21.544ZM9.10088 15.4024C8.5624 15.4024 8.12588 15.8365 8.12588 16.3721C8.12588 16.9077 8.5624 17.3418 9.10088 17.3418H16.9009C17.4394 17.3418 17.8759 16.9077 17.8759 16.3721C17.8759 15.8365 17.4394 15.4024 16.9009 15.4024H9.10088Z"
        fill="currentColor" />
    <path
        d="M22.1408 0.487811C23.0648 0.73538 23.5999 1.69915 23.3214 2.61426L21.5886 8.30932C21.3549 9.07759 20.5541 9.52217 19.7784 9.31433C19.0032 9.10662 18.5321 8.322 18.713 7.54011L20.0549 1.7405C20.2706 0.808026 21.2164 0.240094 22.1408 0.487811ZM18.7236 13.2535C18.2221 13.1191 17.8301 12.8602 17.5474 12.4766C17.2658 12.0889 17.182 11.6926 17.2959 11.2878C17.3986 10.8843 17.6682 10.5871 18.1048 10.3963C18.5414 10.2054 19.0104 10.1772 19.5119 10.3116C19.9931 10.4405 20.3775 10.6974 20.6653 11.0824C20.953 11.4673 21.0456 11.8615 20.9429 12.265C20.8653 12.5344 20.7101 12.7589 20.4774 12.9384C20.2509 13.1152 19.9827 13.2347 19.6729 13.2968C19.3642 13.3548 19.0478 13.3404 18.7236 13.2535Z"
        fill="currentColor" />
</svg>