<svg width="29" height="23" viewBox="0 0 29 23" fill="none" xmlns="http://www.w3.org/2000/svg">
    <path fill-rule="evenodd" clip-rule="evenodd"
        d="M27.314 7.77071C27.314 6.28328 27.314 5.53956 26.8593 5.00531C26.6625 4.77403 26.4096 4.57545 26.115 4.42092C25.5199 4.10868 24.7206 4.06955 23.262 4.06465C23.2675 4.37326 23.2675 4.69574 23.2675 5.02824L23.2674 5.12302V6.44686H24.6163C25.175 6.44686 25.6279 6.80248 25.6279 7.24117C25.6279 7.67985 25.175 8.03547 24.6163 8.03547H23.2674V9.62409H24.6163C25.175 9.62409 25.6279 9.97971 25.6279 10.4184C25.6279 10.8571 25.175 11.2127 24.6163 11.2127H23.2674V12.8013H24.6163C25.175 12.8013 25.6279 13.1569 25.6279 13.5956C25.6279 14.0343 25.175 14.3899 24.6163 14.3899H23.2674V21.2739H21.2442V5.12302C21.2442 3.12601 21.2442 2.1275 20.4541 1.50711C19.6639 0.886719 18.3922 0.886719 15.8488 0.886719H13.1512C10.6078 0.886719 9.33607 0.886719 8.54594 1.50711C7.75581 2.1275 7.75581 3.12601 7.75581 5.12302V21.2739H5.73256V14.3899H4.38372C3.82501 14.3899 3.37209 14.0343 3.37209 13.5956C3.37209 13.1569 3.82501 12.8013 4.38372 12.8013H5.73256V11.2127H4.38372C3.82501 11.2127 3.37209 10.8571 3.37209 10.4184C3.37209 9.97971 3.82501 9.62409 4.38372 9.62409H5.73256V8.03547H4.38372C3.82501 8.03547 3.37209 7.67985 3.37209 7.24117C3.37209 6.80248 3.82501 6.44686 4.38372 6.44686H5.73256V5.12302L5.73255 5.02823C5.7325 4.69573 5.73245 4.37325 5.73799 4.06465C4.27935 4.06955 3.48011 4.10868 2.88497 4.42092C2.59041 4.57545 2.33751 4.77403 2.14069 5.00531C1.68605 5.53956 1.68605 6.28328 1.68605 7.77071V21.2739H1.01163C0.452921 21.2739 0 21.6295 0 22.0682C0 22.5069 0.452921 22.8625 1.01163 22.8625H27.9884C28.5471 22.8625 29 22.5069 29 22.0682C29 21.6295 28.5471 21.2739 27.9884 21.2739H27.314V7.77071ZM10.7907 11.2127C10.7907 10.774 11.2436 10.4184 11.8023 10.4184H17.1977C17.7564 10.4184 18.2093 10.774 18.2093 11.2127C18.2093 11.6514 17.7564 12.007 17.1977 12.007H11.8023C11.2436 12.007 10.7907 11.6514 10.7907 11.2127ZM10.7907 14.3899C10.7907 13.9512 11.2436 13.5956 11.8023 13.5956H17.1977C17.7564 13.5956 18.2093 13.9512 18.2093 14.3899C18.2093 14.8286 17.7564 15.1842 17.1977 15.1842H11.8023C11.2436 15.1842 10.7907 14.8286 10.7907 14.3899ZM14.5 18.0967C15.0587 18.0967 15.5116 18.4523 15.5116 18.891V21.2739H13.4884V18.891C13.4884 18.4523 13.9413 18.0967 14.5 18.0967ZM10.7907 5.38779C10.7907 4.9491 11.2436 4.59348 11.8023 4.59348H17.1977C17.7564 4.59348 18.2093 4.9491 18.2093 5.38779C18.2093 5.82647 17.7564 6.18209 17.1977 6.18209H11.8023C11.2436 6.18209 10.7907 5.82647 10.7907 5.38779ZM10.7907 8.56501C10.7907 8.12633 11.2436 7.77071 11.8023 7.77071H17.1977C17.7564 7.77071 18.2093 8.12633 18.2093 8.56501C18.2093 9.0037 17.7564 9.35932 17.1977 9.35932H11.8023C11.2436 9.35932 10.7907 9.0037 10.7907 8.56501Z"
        fill="currentColor" />
</svg>