<svg width="28" height="29" viewBox="0 0 28 29" fill="none" xmlns="http://www.w3.org/2000/svg">
    <path
        d="M0 6.50365C0 3.5499 0 2.07302 0.922601 1.15541C1.8452 0.237793 3.33011 0.237793 6.29992 0.237793C9.26972 0.237793 10.7546 0.237793 11.6772 1.15541C12.5998 2.07302 12.5998 3.5499 12.5998 6.50365C12.5998 9.45741 12.5998 10.9343 11.6772 11.8519C10.7546 12.7695 9.26972 12.7695 6.29992 12.7695C3.33011 12.7695 1.8452 12.7695 0.922601 11.8519C0 10.9343 0 9.45741 0 6.50365Z"
        fill="currentColor" />
    <path
        d="M15.4004 21.8201C15.4004 18.8663 15.4004 17.3894 16.323 16.4718C17.2456 15.5542 18.7305 15.5542 21.7003 15.5542C24.6701 15.5542 26.155 15.5542 27.0776 16.4718C28.0002 17.3894 28.0002 18.8663 28.0002 21.8201C28.0002 24.7738 28.0002 26.2507 27.0776 27.1683C26.155 28.0859 24.6701 28.0859 21.7003 28.0859C18.7305 28.0859 17.2456 28.0859 16.323 27.1683C15.4004 26.2507 15.4004 24.7738 15.4004 21.8201Z"
        fill="currentColor" />
    <path
        d="M0 21.8201C0 18.8663 0 17.3894 0.922601 16.4718C1.8452 15.5542 3.33011 15.5542 6.29992 15.5542C9.26972 15.5542 10.7546 15.5542 11.6772 16.4718C12.5998 17.3894 12.5998 18.8663 12.5998 21.8201C12.5998 24.7738 12.5998 26.2507 11.6772 27.1683C10.7546 28.0859 9.26972 28.0859 6.29992 28.0859C3.33011 28.0859 1.8452 28.0859 0.922601 27.1683C0 26.2507 0 24.7738 0 21.8201Z"
        fill="currentColor" />
    <path
        d="M15.4004 6.50365C15.4004 3.5499 15.4004 2.07302 16.323 1.15541C17.2456 0.237793 18.7305 0.237793 21.7003 0.237793C24.6701 0.237793 26.155 0.237793 27.0776 1.15541C28.0002 2.07302 28.0002 3.5499 28.0002 6.50365C28.0002 9.45741 28.0002 10.9343 27.0776 11.8519C26.155 12.7695 24.6701 12.7695 21.7003 12.7695C18.7305 12.7695 17.2456 12.7695 16.323 11.8519C15.4004 10.9343 15.4004 9.45741 15.4004 6.50365Z"
        fill="currentColor" />
</svg>