<svg width="26" height="27" viewBox="0 0 26 27" fill="none" xmlns="http://www.w3.org/2000/svg">
    <path fill-rule="evenodd" clip-rule="evenodd"
        d="M0 13.5025C0 7.40735 0 4.35978 1.90381 2.46627C3.80761 0.572754 6.87174 0.572754 13 0.572754C19.1283 0.572754 22.1924 0.572754 24.0962 2.46627C26 4.35978 26 7.40735 26 13.5025C26 19.5976 26 22.6452 24.0962 24.5387C22.1924 26.4322 19.1283 26.4322 13 26.4322C6.87174 26.4322 3.80761 26.4322 1.90381 24.5387C0 22.6452 0 19.5976 0 13.5025ZM3.9 8.97684V7.6841C3.9 6.61297 4.77304 5.74465 5.85 5.74465H20.15C21.227 5.74465 22.1 6.61297 22.1 7.6841V8.97684C21.5568 8.57105 20.8816 8.33059 20.15 8.33059H5.85C5.11836 8.33059 4.44318 8.57105 3.9 8.97684ZM3.9 11.563V12.8558C4.44318 12.45 5.11836 12.2095 5.85 12.2095H20.15C20.8816 12.2095 21.5568 12.45 22.1 12.8558V11.563C22.1 10.4919 21.227 9.62356 20.15 9.62356H5.85C4.77304 9.62356 3.9 10.4919 3.9 11.563ZM23.4 16.4119C23.9385 16.4119 24.375 16.846 24.375 17.3816C24.375 17.9172 23.9385 18.3513 23.4 18.3513H20.3539C19.2116 18.3513 18.9121 18.3685 18.6551 18.4744C18.3981 18.5802 18.1741 18.7787 17.3664 19.5821L16.9706 19.9759C16.409 20.5354 15.9654 20.9773 15.4007 21.2428C15.2955 21.2922 15.1879 21.3366 15.0783 21.3756C14.4903 21.585 13.8624 21.5845 13.0676 21.5838L12.93 21.5838L12.7842 21.5838C11.944 21.5846 11.2803 21.5852 10.6645 21.3532C10.5499 21.31 10.4376 21.261 10.328 21.2063C9.73948 20.9127 9.2905 20.4264 8.72218 19.8109L8.57747 19.6544C7.81263 18.8275 7.59921 18.6215 7.3516 18.5055C7.32539 18.4932 7.29885 18.4816 7.27202 18.4707C7.01853 18.368 6.72157 18.3513 5.59191 18.3513H2.6C2.06152 18.3513 1.625 17.9172 1.625 17.3816C1.625 16.846 2.06152 16.4119 2.6 16.4119L3.92666 16.4118V15.1191C4.0812 14.2017 4.88339 13.5025 5.84977 13.5025H20.1498C21.1161 13.5025 21.9183 14.2017 22.0729 15.1191V16.4118L23.4 16.4119Z"
        fill="currentColor" />
</svg>