<svg width="26" height="28" viewBox="0 0 26 28" fill="none" xmlns="http://www.w3.org/2000/svg">
    <path
        d="M9.75 24.1816V26.7676C9.75 27.3032 10.1865 27.7373 10.725 27.7373C11.2635 27.7373 11.7 27.3032 11.7 26.7676V24.1816H9.75Z"
        fill="currentColor" />
    <path
        d="M16.9 24.1816H14.95V26.7676C14.95 27.3032 15.3865 27.7373 15.925 27.7373C16.4635 27.7373 16.9 27.3032 16.9 26.7676V24.1816Z"
        fill="currentColor" />
    <path fill-rule="evenodd" clip-rule="evenodd"
        d="M20.0002 6.8361L20.3331 6.76982C20.8735 6.66221 21.4324 6.71359 21.946 6.91812C22.8434 7.27549 23.8247 7.34225 24.7597 7.10954L24.8396 7.08965C25.5204 6.92021 26.0002 6.29084 26.0002 5.56724V2.81254C26.0002 1.85857 25.1368 1.15574 24.2393 1.37912C23.7239 1.5074 23.1829 1.4706 22.6882 1.27361L22.5932 1.23577C21.7651 0.905984 20.864 0.823134 19.9925 0.996658L19.4092 1.1128C18.7074 1.25255 18.2002 1.88726 18.2002 2.62586V11.6149C18.2002 12.1286 18.6031 12.545 19.1002 12.545C19.5973 12.545 20.0002 12.1286 20.0002 11.6149V6.8361Z"
        fill="currentColor" />
    <path
        d="M16.25 6.08008V11.6149C16.25 13.1292 17.4564 14.4844 19.1 14.4844C20.7436 14.4844 21.95 13.1292 21.95 11.6149V8.96076C22.9392 9.22633 23.978 9.25737 24.986 9.04739C25.6259 10.1358 26 11.4513 26 12.8682V20.8527C26 22.6912 24.7155 24.1817 23.131 24.1817H13.65V12.8682C13.65 10.2436 12.5683 7.72996 10.7674 6.08008H16.25Z"
        fill="currentColor" />
    <path fill-rule="evenodd" clip-rule="evenodd"
        d="M0 12.8682C0 9.11922 2.61913 6.08008 5.85 6.08008C9.08087 6.08008 11.7 9.11922 11.7 12.8682V24.1817H2.90233C1.29942 24.1817 0 22.6739 0 20.814V12.8682ZM2.925 19.0098C2.925 18.4742 3.36152 18.0401 3.9 18.0401H7.8C8.33848 18.0401 8.775 18.4742 8.775 19.0098C8.775 19.5454 8.33848 19.9795 7.8 19.9795H3.9C3.36152 19.9795 2.925 19.5454 2.925 19.0098Z"
        fill="currentColor" />
</svg>