<svg width="42" height="42" viewBox="0 0 42 42" fill="none" xmlns="http://www.w3.org/2000/svg">
    <rect x="4" y="4" width="34" height="34" rx="17" fill="#00D008" fill-opacity="0.5" />
    <mask id="path-2-inside-1_0_1" fill="white">
        <path
            d="M31.5314 39.1684C28.1281 41.1411 24.2391 42.1183 20.3075 41.9886C16.376 41.8589 12.5599 40.6275 9.29399 38.4347C6.02813 36.242 3.44381 33.176 1.83547 29.5861C0.227129 25.9962 -0.34057 22.0267 0.197051 18.1299C0.734671 14.2331 2.35599 10.5657 4.8763 7.54539C7.39662 4.52511 10.7146 2.27344 14.4522 1.0469C18.1898 -0.179632 22.1968 -0.33171 26.0166 0.607993C29.8364 1.5477 33.3155 3.5414 36.0575 6.36196L34.9956 7.39428C32.447 4.77263 29.2132 2.91953 25.6628 2.0461C22.1124 1.17267 18.388 1.31402 14.914 2.45406C11.4399 3.59409 8.35597 5.68697 6.0134 8.49425C3.67083 11.3015 2.16384 14.7104 1.66414 18.3323C1.16443 21.9543 1.6921 25.6438 3.18701 28.9806C4.68193 32.3173 7.08399 35.167 10.1195 37.2052C13.1551 39.2433 16.7021 40.3878 20.3564 40.5084C24.0107 40.629 27.6254 39.7207 30.7887 37.8871L31.5314 39.1684Z" />
    </mask>
    <path
        d="M31.5314 39.1684C28.1281 41.1411 24.2391 42.1183 20.3075 41.9886C16.376 41.8589 12.5599 40.6275 9.29399 38.4347C6.02813 36.242 3.44381 33.176 1.83547 29.5861C0.227129 25.9962 -0.34057 22.0267 0.197051 18.1299C0.734671 14.2331 2.35599 10.5657 4.8763 7.54539C7.39662 4.52511 10.7146 2.27344 14.4522 1.0469C18.1898 -0.179632 22.1968 -0.33171 26.0166 0.607993C29.8364 1.5477 33.3155 3.5414 36.0575 6.36196L34.9956 7.39428C32.447 4.77263 29.2132 2.91953 25.6628 2.0461C22.1124 1.17267 18.388 1.31402 14.914 2.45406C11.4399 3.59409 8.35597 5.68697 6.0134 8.49425C3.67083 11.3015 2.16384 14.7104 1.66414 18.3323C1.16443 21.9543 1.6921 25.6438 3.18701 28.9806C4.68193 32.3173 7.08399 35.167 10.1195 37.2052C13.1551 39.2433 16.7021 40.3878 20.3564 40.5084C24.0107 40.629 27.6254 39.7207 30.7887 37.8871L31.5314 39.1684Z"
        stroke="#00D008" stroke-width="2" mask="url(#path-2-inside-1_0_1)" />
    <mask id="path-3-inside-2_0_1" fill="white">
        <path
            d="M37.8613 8.48221C41.1813 12.9541 42.5888 18.5617 41.7742 24.0714L40.3091 23.8548C41.0663 18.7337 39.758 13.5215 36.6722 9.36501L37.8613 8.48221Z" />
    </mask>
    <path
        d="M37.8613 8.48221C41.1813 12.9541 42.5888 18.5617 41.7742 24.0714L40.3091 23.8548C41.0663 18.7337 39.758 13.5215 36.6722 9.36501L37.8613 8.48221Z"
        stroke="#00D008" stroke-width="2" mask="url(#path-3-inside-2_0_1)" />
    <path fill-rule="evenodd" clip-rule="evenodd"
        d="M14.9412 7C12.2122 7 10 9.21224 10 11.9412V26.7647C10 29.4936 12.2122 31.7059 14.9412 31.7059H23.2986C23.1054 31.1735 23 30.5991 23 30C23 27.2386 25.2386 25 28 25C28.6212 25 29.216 25.1133 29.7647 25.3203V16.8824H27.2941C24.5652 16.8824 22.3529 14.6701 22.3529 11.9412V7H14.9412ZM13.7059 19.3529C13.7059 18.6707 14.2589 18.1176 14.9412 18.1176H17.4118C18.094 18.1176 18.6471 18.6707 18.6471 19.3529C18.6471 20.0352 18.094 20.5882 17.4118 20.5882H14.9412C14.2589 20.5882 13.7059 20.0352 13.7059 19.3529ZM13.7059 24.2941C13.7059 23.6119 14.2589 23.0588 14.9412 23.0588H19.8824C20.5646 23.0588 21.1176 23.6119 21.1176 24.2941C21.1176 24.9764 20.5646 25.5294 19.8824 25.5294H14.9412C14.2589 25.5294 13.7059 24.9764 13.7059 24.2941Z"
        fill="#00D008" />
    <path
        d="M25.504 12.1424L25.6657 9.71615C25.7363 8.65719 27.0213 8.17437 27.7718 8.92484L30.0363 11.1893C30.7867 11.9398 30.3039 13.2248 29.245 13.2954L26.8187 13.4571C26.073 13.5068 25.4543 12.8881 25.504 12.1424Z"
        fill="#00D008" />
    <path fill-rule="evenodd" clip-rule="evenodd"
        d="M28 34C30.2091 34 32 32.2091 32 30C32 27.7909 30.2091 26 28 26C25.7909 26 24 27.7909 24 30C24 32.2091 25.7909 34 28 34ZM30.624 28.416C30.8538 28.0714 30.7607 27.6057 30.416 27.376C30.0714 27.1462 29.6057 27.2393 29.376 27.584L27.3916 30.5605L26.6556 29.2358C26.4545 28.8737 25.9979 28.7432 25.6358 28.9444C25.2737 29.1455 25.1432 29.6021 25.3444 29.9642L26.2795 31.6474C26.734 32.4655 27.8931 32.5124 28.4122 31.7337L30.624 28.416Z"
        fill="#00D008" />
</svg>