<svg width="42" height="42" viewBox="0 0 42 42" fill="none" xmlns="http://www.w3.org/2000/svg">
    <rect x="4" y="4" width="34" height="34" rx="17" fill="#FF5117" fill-opacity="0.5" />
    <mask id="path-2-inside-1_555_347" fill="white">
        <path
            d="M31.5314 39.1684C28.1281 41.1411 24.2391 42.1183 20.3075 41.9886C16.376 41.8589 12.5599 40.6275 9.29399 38.4347C6.02813 36.242 3.44381 33.176 1.83547 29.5861C0.227129 25.9962 -0.34057 22.0267 0.197051 18.1299C0.734671 14.2331 2.35599 10.5657 4.8763 7.54539C7.39662 4.52511 10.7146 2.27344 14.4522 1.0469C18.1898 -0.179632 22.1968 -0.33171 26.0166 0.607993C29.8364 1.5477 33.3155 3.5414 36.0575 6.36196L34.9956 7.39428C32.447 4.77263 29.2132 2.91953 25.6628 2.0461C22.1124 1.17267 18.388 1.31402 14.914 2.45406C11.4399 3.59409 8.35597 5.68697 6.0134 8.49425C3.67083 11.3015 2.16384 14.7104 1.66414 18.3323C1.16443 21.9543 1.6921 25.6438 3.18701 28.9806C4.68193 32.3173 7.08399 35.167 10.1195 37.2052C13.1551 39.2433 16.7021 40.3878 20.3564 40.5084C24.0107 40.629 27.6254 39.7207 30.7887 37.8871L31.5314 39.1684Z" />
    </mask>
    <path
        d="M31.5314 39.1684C28.1281 41.1411 24.2391 42.1183 20.3075 41.9886C16.376 41.8589 12.5599 40.6275 9.29399 38.4347C6.02813 36.242 3.44381 33.176 1.83547 29.5861C0.227129 25.9962 -0.34057 22.0267 0.197051 18.1299C0.734671 14.2331 2.35599 10.5657 4.8763 7.54539C7.39662 4.52511 10.7146 2.27344 14.4522 1.0469C18.1898 -0.179632 22.1968 -0.33171 26.0166 0.607993C29.8364 1.5477 33.3155 3.5414 36.0575 6.36196L34.9956 7.39428C32.447 4.77263 29.2132 2.91953 25.6628 2.0461C22.1124 1.17267 18.388 1.31402 14.914 2.45406C11.4399 3.59409 8.35597 5.68697 6.0134 8.49425C3.67083 11.3015 2.16384 14.7104 1.66414 18.3323C1.16443 21.9543 1.6921 25.6438 3.18701 28.9806C4.68193 32.3173 7.08399 35.167 10.1195 37.2052C13.1551 39.2433 16.7021 40.3878 20.3564 40.5084C24.0107 40.629 27.6254 39.7207 30.7887 37.8871L31.5314 39.1684Z"
        stroke="#FF5117" stroke-width="2" mask="url(#path-2-inside-1_555_347)" />
    <mask id="path-3-inside-2_555_347" fill="white">
        <path
            d="M37.8613 8.48221C41.1813 12.9541 42.5888 18.5617 41.7742 24.0714L40.3091 23.8548C41.0663 18.7337 39.758 13.5215 36.6722 9.36501L37.8613 8.48221Z" />
    </mask>
    <path
        d="M37.8613 8.48221C41.1813 12.9541 42.5888 18.5617 41.7742 24.0714L40.3091 23.8548C41.0663 18.7337 39.758 13.5215 36.6722 9.36501L37.8613 8.48221Z"
        stroke="#FF5117" stroke-width="2" mask="url(#path-3-inside-2_555_347)" />
    <path fill-rule="evenodd" clip-rule="evenodd"
        d="M11.1176 13.5881C11.1176 10.8592 13.3299 8.64697 16.0588 8.64697H23.4706V13.5881C23.4706 16.3171 25.6828 18.5293 28.4117 18.5293H30.8823V28.4117C30.8823 31.1406 28.6701 33.3529 25.9411 33.3529H16.0588C13.3299 33.3529 11.1176 31.1406 11.1176 28.4117V13.5881ZM16.0588 19.7646C15.3766 19.7646 14.8235 20.3177 14.8235 20.9999C14.8235 21.6821 15.3766 22.2352 16.0588 22.2352H18.5294C19.2116 22.2352 19.7647 21.6821 19.7647 20.9999C19.7647 20.3177 19.2116 19.7646 18.5294 19.7646H16.0588ZM16.0588 24.7058C15.3766 24.7058 14.8235 25.2589 14.8235 25.9411C14.8235 26.6233 15.3766 27.1764 16.0588 27.1764H21C21.6822 27.1764 22.2353 26.6233 22.2353 25.9411C22.2353 25.2589 21.6822 24.7058 21 24.7058H16.0588ZM26.7834 11.3631L26.6216 13.7894C26.5719 14.5351 27.1906 15.1538 27.9363 15.1041L30.3626 14.9423C31.4215 14.8717 31.9043 13.5867 31.1539 12.8363L28.8894 10.5718C28.1389 9.82135 26.854 10.3042 26.7834 11.3631Z"
        fill="#FF5117" />
</svg>