<svg width="42" height="42" viewBox="0 0 42 42" fill="none" xmlns="http://www.w3.org/2000/svg">
    <mask id="path-1-inside-1_0_1" fill="white">
        <path
            d="M37.8613 8.48221C41.1813 12.9541 42.5888 18.5617 41.7742 24.0714L40.3091 23.8548C41.0663 18.7337 39.758 13.5215 36.6722 9.36501L37.8613 8.48221Z" />
    </mask>
    <path
        d="M37.8613 8.48221C41.1813 12.9541 42.5888 18.5617 41.7742 24.0714L40.3091 23.8548C41.0663 18.7337 39.758 13.5215 36.6722 9.36501L37.8613 8.48221Z"
        stroke="#6C6C6C" stroke-width="2" mask="url(#path-1-inside-1_0_1)" />
    <rect x="4" y="4" width="34" height="34" rx="17" fill="#6C6C6C" fill-opacity="0.5" />
    <mask id="path-3-inside-2_0_1" fill="white">
        <path
            d="M31.5314 39.1684C28.1281 41.1411 24.2391 42.1183 20.3075 41.9886C16.376 41.8589 12.5599 40.6275 9.29399 38.4347C6.02813 36.242 3.44381 33.176 1.83547 29.5861C0.227129 25.9962 -0.34057 22.0267 0.197051 18.1299C0.734671 14.2331 2.35599 10.5657 4.8763 7.54539C7.39662 4.52511 10.7146 2.27344 14.4522 1.0469C18.1898 -0.179632 22.1968 -0.33171 26.0166 0.607993C29.8364 1.5477 33.3155 3.5414 36.0575 6.36196L34.9956 7.39428C32.447 4.77263 29.2132 2.91953 25.6628 2.0461C22.1124 1.17267 18.388 1.31402 14.914 2.45406C11.4399 3.59409 8.35597 5.68697 6.0134 8.49425C3.67083 11.3015 2.16384 14.7104 1.66414 18.3323C1.16443 21.9543 1.6921 25.6438 3.18701 28.9806C4.68193 32.3173 7.08399 35.167 10.1195 37.2052C13.1551 39.2433 16.7021 40.3878 20.3564 40.5084C24.0107 40.629 27.6254 39.7207 30.7887 37.8871L31.5314 39.1684Z" />
    </mask>
    <path
        d="M31.5314 39.1684C28.1281 41.1411 24.2391 42.1183 20.3075 41.9886C16.376 41.8589 12.5599 40.6275 9.29399 38.4347C6.02813 36.242 3.44381 33.176 1.83547 29.5861C0.227129 25.9962 -0.34057 22.0267 0.197051 18.1299C0.734671 14.2331 2.35599 10.5657 4.8763 7.54539C7.39662 4.52511 10.7146 2.27344 14.4522 1.0469C18.1898 -0.179632 22.1968 -0.33171 26.0166 0.607993C29.8364 1.5477 33.3155 3.5414 36.0575 6.36196L34.9956 7.39428C32.447 4.77263 29.2132 2.91953 25.6628 2.0461C22.1124 1.17267 18.388 1.31402 14.914 2.45406C11.4399 3.59409 8.35597 5.68697 6.0134 8.49425C3.67083 11.3015 2.16384 14.7104 1.66414 18.3323C1.16443 21.9543 1.6921 25.6438 3.18701 28.9806C4.68193 32.3173 7.08399 35.167 10.1195 37.2052C13.1551 39.2433 16.7021 40.3878 20.3564 40.5084C24.0107 40.629 27.6254 39.7207 30.7887 37.8871L31.5314 39.1684Z"
        stroke="#6C6C6C" stroke-width="2" mask="url(#path-3-inside-2_0_1)" />
    <path fill-rule="evenodd" clip-rule="evenodd"
        d="M21 34C28.1797 34 34 28.1797 34 21C34 13.8203 28.1797 8 21 8C13.8203 8 8 13.8203 8 21C8 28.1797 13.8203 34 21 34ZM21 30.6891C15.6488 30.6891 11.3109 26.3512 11.3109 21C11.3109 19.1077 11.8534 17.342 12.7913 15.8501L26.1499 29.2087C24.658 30.1466 22.8923 30.6891 21 30.6891ZM28.9247 26.5762C30.0363 24.9994 30.6891 23.0759 30.6891 21C30.6891 15.6488 26.3512 11.3109 21 11.3109C18.9241 11.3109 17.0006 11.9637 15.4238 13.0753L28.9247 26.5762Z"
        fill="#6C6C6C" />
</svg>