<svg width="42" height="42" viewBox="0 0 42 42" fill="none" xmlns="http://www.w3.org/2000/svg">
    <rect x="4" y="4" width="34" height="34" rx="17" fill="#448CF6" fill-opacity="0.5" />
    <mask id="path-2-inside-1_563_6" fill="white">
        <path
            d="M31.5314 39.1684C28.1281 41.1411 24.2391 42.1183 20.3075 41.9886C16.376 41.8589 12.5599 40.6275 9.29399 38.4347C6.02813 36.242 3.44381 33.176 1.83547 29.5861C0.227129 25.9962 -0.34057 22.0267 0.197051 18.1299C0.734671 14.2331 2.35599 10.5657 4.8763 7.54539C7.39662 4.52511 10.7146 2.27344 14.4522 1.0469C18.1898 -0.179632 22.1968 -0.33171 26.0166 0.607993C29.8364 1.5477 33.3155 3.5414 36.0575 6.36196L34.9956 7.39428C32.447 4.77263 29.2132 2.91953 25.6628 2.0461C22.1124 1.17267 18.388 1.31402 14.914 2.45406C11.4399 3.59409 8.35597 5.68697 6.0134 8.49425C3.67083 11.3015 2.16384 14.7104 1.66414 18.3323C1.16443 21.9543 1.6921 25.6438 3.18701 28.9806C4.68193 32.3173 7.08399 35.167 10.1195 37.2052C13.1551 39.2433 16.7021 40.3878 20.3564 40.5084C24.0107 40.629 27.6254 39.7207 30.7887 37.8871L31.5314 39.1684Z" />
    </mask>
    <path
        d="M31.5314 39.1684C28.1281 41.1411 24.2391 42.1183 20.3075 41.9886C16.376 41.8589 12.5599 40.6275 9.29399 38.4347C6.02813 36.242 3.44381 33.176 1.83547 29.5861C0.227129 25.9962 -0.34057 22.0267 0.197051 18.1299C0.734671 14.2331 2.35599 10.5657 4.8763 7.54539C7.39662 4.52511 10.7146 2.27344 14.4522 1.0469C18.1898 -0.179632 22.1968 -0.33171 26.0166 0.607993C29.8364 1.5477 33.3155 3.5414 36.0575 6.36196L34.9956 7.39428C32.447 4.77263 29.2132 2.91953 25.6628 2.0461C22.1124 1.17267 18.388 1.31402 14.914 2.45406C11.4399 3.59409 8.35597 5.68697 6.0134 8.49425C3.67083 11.3015 2.16384 14.7104 1.66414 18.3323C1.16443 21.9543 1.6921 25.6438 3.18701 28.9806C4.68193 32.3173 7.08399 35.167 10.1195 37.2052C13.1551 39.2433 16.7021 40.3878 20.3564 40.5084C24.0107 40.629 27.6254 39.7207 30.7887 37.8871L31.5314 39.1684Z"
        stroke="#448CF6" stroke-width="2" mask="url(#path-2-inside-1_563_6)" />
    <mask id="path-3-inside-2_563_6" fill="white">
        <path
            d="M37.8613 8.48221C41.1813 12.9541 42.5888 18.5617 41.7742 24.0714L40.3091 23.8548C41.0663 18.7337 39.758 13.5215 36.6722 9.36501L37.8613 8.48221Z" />
    </mask>
    <path
        d="M37.8613 8.48221C41.1813 12.9541 42.5888 18.5617 41.7742 24.0714L40.3091 23.8548C41.0663 18.7337 39.758 13.5215 36.6722 9.36501L37.8613 8.48221Z"
        stroke="#448CF6" stroke-width="2" mask="url(#path-3-inside-2_563_6)" />
    <path
        d="M18.3467 11.029C19.4723 8.89558 22.5277 8.89558 23.6533 11.029L24.8964 13.385C25.3305 14.2077 26.1216 14.7826 27.0382 14.9412L29.663 15.3953C32.0399 15.8066 32.9841 18.7125 31.3029 20.4423L29.4463 22.3525C28.798 23.0196 28.4958 23.9497 28.6282 24.8704L29.0074 27.5071C29.3508 29.8947 26.8788 31.6907 24.7142 30.6263L22.3237 29.4509C21.489 29.0404 20.511 29.0404 19.6763 29.4509L17.2858 30.6263C15.1212 31.6907 12.6492 29.8947 12.9926 27.5071L13.3718 24.8704C13.5042 23.9497 13.202 23.0196 12.5537 22.3525L10.6971 20.4423C9.01592 18.7125 9.9601 15.8066 12.337 15.3953L14.9618 14.9412C15.8784 14.7826 16.6695 14.2077 17.1036 13.385L18.3467 11.029Z"
        fill="#448CF6" />
</svg>