<svg width="20" height="20" viewBox="0 0 20 20" fill="none"
    xmlns="http://www.w3.org/2000/svg">
    <path fill-rule="evenodd" clip-rule="evenodd" d="M0 10V6C0 3.17157 0 1.75736 0.878679 0.87868C1.75736 0 3.17157 0 6 0H14C16.8284 0 18.2426 0 19.1213 0.878679C20 1.75736 20 3.17157 20 6V10C20 12.8284 20 14.2426 19.1213 15.1213C18.645 15.5977 18.0113 15.8158 17.0802 15.9156C17.0062 15.8157 16.9362 15.737 16.8862 15.6821C16.7701 15.5544 16.6228 15.4092 16.48 15.2684L14.987 13.7962L14.4357 13.2377C14.0733 11.1151 12.2255 9.5 10.0001 9.5C7.77461 9.5 5.9268 11.1151 5.56446 13.2377L5.01311 13.7962L3.5202 15.2683C3.37739 15.4091 3.23008 15.5543 3.11392 15.6821C3.06395 15.737 2.9939 15.8157 2.9199 15.9156C1.98877 15.8158 1.35503 15.5977 0.878679 15.1213C0 14.2426 0 12.8284 0 10ZM7 3.25C6.58579 3.25 6.25 3.58579 6.25 4C6.25 4.41421 6.58579 4.75 7 4.75H13C13.4142 4.75 13.75 4.41421 13.75 4C13.75 3.58579 13.4142 3.25 13 3.25H7ZM4.25 7.5C4.25 7.08579 4.58579 6.75 5 6.75H15C15.4142 6.75 15.75 7.08579 15.75 7.5C15.75 7.91421 15.4142 8.25 15 8.25H5C4.58579 8.25 4.25 7.91421 4.25 7.5Z" fill="currentColor"/>
    <path d="M13 14C13 15.6569 11.6569 17 10 17C8.34315 17 7 15.6569 7 14C7 12.3431 8.34315 11 10 11C11.6569 11 13 12.3431 13 14Z" fill="currentColor"/>
    <path d="M7.00111 13.9174C7.00037 13.9449 7 13.9724 7 14C7 15.6569 8.34315 17 10 17C11.6569 17 13 15.6569 13 14C13 13.9724 12.9996 13.9449 12.9989 13.9174C12.9551 12.2987 11.6292 11 10 11C8.4467 11 7.16912 12.1805 7.01549 13.6933C7.00798 13.7672 7.00315 13.842 7.00111 13.9174Z" fill="currentColor"/>
    <path d="M5.6757 15.2494L4.59523 16.3148C4.27116 16.6344 4.10913 16.7942 4.05306 16.9295C3.92529 17.2378 4.03463 17.5799 4.31283 17.7421C4.43492 17.8132 4.65512 17.8354 5.09553 17.8798C5.3442 17.9048 5.46853 17.9173 5.57266 17.9554C5.80579 18.0405 5.98715 18.2193 6.07345 18.4492C6.112 18.5519 6.1247 18.6745 6.1501 18.9197C6.19509 19.354 6.21758 19.5711 6.28977 19.6915C6.45425 19.9659 6.80111 20.0737 7.1138 19.9477C7.25102 19.8924 7.41306 19.7326 7.73713 19.413L8.81754 18.343C7.30505 17.9322 6.10917 16.7524 5.6757 15.2494Z" fill="currentColor"/>
    <path d="M11.1825 18.343L12.2629 19.413C12.5869 19.7326 12.749 19.8924 12.8862 19.9477C13.1989 20.0737 13.5457 19.9659 13.7102 19.6915C13.7824 19.5711 13.8049 19.354 13.8499 18.9197C13.8753 18.6745 13.888 18.5519 13.9265 18.4492C14.0129 18.2193 14.1942 18.0405 14.4273 17.9554C14.5315 17.9173 14.6558 17.9048 14.9045 17.8798C15.3449 17.8354 15.5651 17.8132 15.6872 17.7421C15.9654 17.5799 16.0747 17.2378 15.9469 16.9295C15.8909 16.7942 15.7288 16.6344 15.4048 16.3148L14.3243 15.2494C13.8908 16.7524 12.6949 17.9322 11.1825 18.343Z" fill="currentColor"/>
</svg>
