<svg width="180" height="39" viewBox="0 0 180 39" fill="none" xmlns="http://www.w3.org/2000/svg">
    <path fill-rule="evenodd" clip-rule="evenodd"
        d="M139.186 24.1896C138.799 23.1483 138.606 21.2201 138.606 18.8291V15.0498H144.409V38.1884H141.507C139.921 38.1884 138.606 38.1499 138.606 38.0727C138.606 38.0483 138.714 37.7152 138.872 37.2297C138.964 36.9477 139.072 36.6144 139.186 36.2602C139.259 36.032 139.33 35.8125 139.396 35.6093L139.4 35.5979L139.407 35.5776L139.407 35.5771L139.408 35.5746L139.409 35.569C139.615 34.934 139.766 34.4668 139.766 34.4091C139.766 34.3706 139.496 34.332 139.186 34.332C138.877 34.332 138.258 34.949 137.832 35.6817C137.407 36.4145 136.672 37.3015 136.207 37.61C135.704 37.9185 134.544 38.3041 133.577 38.4198C132.339 38.6126 131.294 38.497 130.018 38.0727C128.857 37.6485 127.813 36.9544 127.232 36.1445C126.729 35.4889 126.11 34.2163 125.878 33.3679C125.646 32.5195 125.453 31.054 125.453 30.0899C125.453 29.1258 125.646 27.6989 125.84 26.8891C126.072 26.1178 126.691 24.9223 127.31 24.2667C127.89 23.5725 128.818 22.8013 129.437 22.5313C130.018 22.2228 131.372 21.9914 132.416 21.9914C133.499 21.9914 134.969 22.2999 135.743 22.647C136.517 23.0326 137.484 23.9196 137.871 24.5752C138.296 25.2694 138.877 25.8478 139.186 25.8478C139.689 25.8478 139.689 25.655 139.186 24.1896ZM36.8234 18.0964C36.7847 16.978 36.9782 16.5152 37.6745 16.0139C38.2548 15.6283 39.1832 15.4354 40.1891 15.5126C41.0402 15.5897 42.046 15.8982 42.4329 16.2067C42.8584 16.5924 43.0905 17.3251 43.0905 18.2506C43.0518 19.2919 42.8197 19.8703 42.2007 20.2946C41.6978 20.6031 40.6146 20.873 39.7635 20.8345C38.8351 20.8345 37.9453 20.5645 37.5198 20.1789C37.1329 19.7932 36.8234 18.9063 36.8234 18.0964ZM75.1611 18.5977C72.6852 19.369 72.6465 19.4076 72.7626 20.6802L72.8399 21.9914H68.9714V27.0048H72.8399C72.8399 36.1445 72.9173 36.7616 73.6137 37.4172C74.31 38.1113 74.929 38.1884 79.4165 38.1884H84.4457L84.2523 33.3679L78.256 33.1751V27.0048H83.672L83.4785 22.1842L78.256 21.9914C78.256 18.7134 78.1399 17.7879 77.9852 17.8264C77.882 17.8264 77.2802 17.9978 76.4779 18.2264C76.0767 18.3406 75.6253 18.4692 75.1611 18.5977ZM33.7285 24.768C33.6899 23.534 33.8059 22.377 33.9993 22.2228C34.1928 22.0685 35.9723 21.9914 37.9066 22.0685C40.692 22.1842 41.6205 22.3385 42.1621 22.8784C42.7423 23.4568 42.8971 24.3824 43.0518 33.1751H47.3073V38.1884H33.3804V33.1751H37.6358V27.0048H33.7672L33.7285 24.768ZM49.435 22.2614C49.2803 22.4156 49.1642 26.0407 49.2029 30.3599L49.2416 38.1884H55.0444C55.0444 29.4729 55.0831 29.2801 56.1276 28.1232C57.0174 27.1205 57.4817 26.9277 58.9904 26.8891C60.267 26.8505 61.0408 27.0433 61.505 27.5061C62.0853 28.0846 62.24 29.0101 62.3174 33.2136L62.3948 38.1884H67.8108C67.656 27.2362 67.5013 26.272 66.8436 25.1537C66.4181 24.421 65.567 23.4568 64.9867 23.0326C64.2517 22.4542 63.1685 22.1842 61.6984 22.0685C60.151 21.9914 59.1065 22.1842 58.1393 22.647C57.2882 23.1098 56.4371 23.9967 55.8182 25.1922C55.2766 26.1949 54.6576 27.0048 54.3868 27.0048C54.116 27.0048 53.9612 26.8119 54.0773 26.542C54.1547 26.272 54.4255 25.4622 54.6963 24.6909C54.9671 23.9582 55.0444 23.0712 54.9284 22.6856C54.6963 22.1456 54.1934 21.9914 52.2204 21.9914C50.8664 21.9914 49.6284 22.1071 49.435 22.2614ZM87.3084 24.7295C87.9661 24.0353 89.204 23.1098 90.0551 22.7241C91.061 22.2999 92.531 22.0299 94.1172 22.0299C95.742 22.0299 97.1733 22.2614 98.1792 22.7241C99.0303 23.1483 100.191 23.9582 100.732 24.5752C101.313 25.1923 101.97 26.272 102.202 27.0048C102.435 27.7761 102.628 29.0101 102.628 31.2468H96.8252C91.9507 31.2468 91.0223 31.3625 91.0223 31.8253C91.0223 32.1724 91.4478 32.8666 91.9894 33.3679C92.6471 34.0621 93.3821 34.332 94.3493 34.332C95.2777 34.332 96.0128 34.0621 96.6704 33.3679C97.5215 32.558 97.9857 32.4038 102.628 32.4038L102.435 33.4836C102.319 34.062 101.893 34.9876 101.545 35.4889C101.158 36.0288 99.9974 36.9158 98.9529 37.4172C97.4054 38.227 96.4383 38.3813 94.1172 38.3813C91.7573 38.3813 90.9062 38.227 89.5135 37.4172C88.5464 36.9158 87.3858 35.8746 86.8829 35.1033C86.38 34.3706 85.8384 32.9437 85.6063 31.941C85.3355 30.6684 85.3741 29.5115 85.6836 28.0846C85.9544 26.812 86.5734 25.5779 87.3084 24.7295ZM104.949 30.0899V38.1884H110.365C110.404 32.3652 110.636 30.0899 110.868 29.3186C111.216 28.3545 111.758 27.8146 112.802 27.3133C113.654 26.9276 114.737 26.7348 115.394 26.8119C116.052 26.9276 116.826 27.2747 117.135 27.5832C117.599 28.046 117.716 29.2415 117.716 33.1751V38.1884H123.518C123.325 27.1976 123.286 26.7348 122.319 25.0765C121.7 23.9967 120.772 23.1098 119.921 22.6856C119.147 22.2999 117.677 21.9914 116.671 21.9914C115.394 21.9914 114.389 22.2614 113.46 22.8784C112.725 23.3412 111.758 24.4595 111.332 25.3851C110.907 26.272 110.365 27.0048 110.094 27.0048C109.785 27.0048 109.669 26.6963 109.824 26.1564C109.94 25.6936 110.172 24.5366 110.288 23.6497L110.559 21.9914H104.949V30.0899ZM148.587 24.5752C149.167 23.9582 150.328 23.1483 151.179 22.7241C152.146 22.2999 153.616 22.0299 155.163 22.0299C156.479 22.0299 158.22 22.2613 159.032 22.6084C159.806 22.9555 161.044 23.7654 161.74 24.4595C162.436 25.1151 163.171 26.272 163.365 27.0048C163.597 27.7761 163.752 29.0101 163.752 31.2468H157.949C153.074 31.2468 152.146 31.3625 152.146 31.8253C152.146 32.1724 152.571 32.8666 153.113 33.3679C153.771 34.0621 154.506 34.332 155.473 34.332C156.401 34.332 157.136 34.0621 157.794 33.3679C158.645 32.558 159.109 32.4038 161.276 32.4038C163.365 32.4038 163.752 32.5195 163.752 33.0979C163.79 33.4836 163.365 34.3706 162.901 35.1033C162.398 35.8746 161.314 36.8387 160.463 37.34C159.612 37.8028 157.949 38.3041 156.788 38.4584C155.512 38.6126 153.964 38.5355 152.92 38.227C151.952 37.9956 150.56 37.3786 149.825 36.9158C149.012 36.3759 148.123 35.2576 147.542 34.1392C146.885 32.7894 146.614 31.5939 146.653 30.0899C146.653 28.933 146.885 27.4675 147.117 26.8119C147.349 26.1949 148.045 25.1923 148.587 24.5752ZM168.085 22.3385C167.62 22.4927 166.963 23.0326 166.653 23.5725C166.228 24.3052 166.073 26.1178 166.073 31.3625V38.1884H171.876V27.0048H180L179.806 22.1842C171.411 22.1071 168.587 22.1842 168.085 22.3385ZM90.9834 28.0073C90.9834 27.6988 91.4089 27.0818 92.0279 26.6576C92.6082 26.1948 93.5366 25.8477 94.0782 25.8477C94.6198 25.8092 95.5483 26.1562 96.1286 26.619C96.7475 27.0432 97.2118 27.6602 97.2118 27.9688C97.2118 28.4315 96.5928 28.5472 94.1169 28.5472C91.7184 28.5472 91.022 28.4315 90.9834 28.0073ZM152.107 28.0073C152.107 27.6988 152.533 27.0818 153.152 26.6576C153.732 26.1948 154.66 25.8477 155.202 25.8477C155.743 25.8092 156.672 26.1562 157.252 26.619C157.871 27.0432 158.335 27.6602 158.335 27.9688C158.335 28.4315 157.716 28.5472 155.241 28.5472C152.842 28.5472 152.146 28.4315 152.107 28.0073ZM133.306 26.889C132.841 26.9661 132.068 27.506 131.604 28.0845C130.985 28.8943 130.83 29.4728 130.985 30.6683C131.139 31.6324 131.526 32.4808 132.106 32.905C132.648 33.3292 133.615 33.5992 134.621 33.5606C135.549 33.5606 136.671 33.3678 137.136 33.1364C137.638 32.8664 138.141 32.4808 138.296 32.2494C138.451 32.018 138.606 31.1696 138.606 30.3598C138.606 29.5885 138.412 28.5858 138.219 28.1616C137.987 27.7374 137.174 27.236 136.362 27.0047C135.588 26.8118 134.737 26.6576 134.544 26.6576C134.448 26.6735 134.298 26.7027 134.124 26.7369L134.123 26.737C133.876 26.7854 133.578 26.8438 133.306 26.889Z"
        fill="white" />
    <path
        d="M0 18.0204V9.01018V0H27.0305V17.9847L22.5516 22.4507C20.091 24.908 18.0584 26.9023 18.0299 26.881C17.9942 26.8667 17.9728 24.8724 17.9728 18.056L8.98641 27.0305V18.0204H0Z"
        fill="#FF5117" />
</svg>