<svg width="20" height="21" viewBox="0 0 20 21" fill="none"
    xmlns="http://www.w3.org/2000/svg">
    <path fill-rule="evenodd" clip-rule="evenodd" d="M8.54875 20.2338L8.7988 19.8113C9.19955 19.1343 9.39993 18.7957 9.71913 18.6069C10.0383 18.4181 10.4547 18.4048 11.2874 18.3782C12.0682 18.3532 12.593 18.285 13.0417 18.0992C13.9864 17.7079 14.7369 16.9573 15.1282 16.0126C15.4217 15.3041 15.4217 14.4059 15.4217 12.6095V11.8384C15.4217 9.31432 15.4217 8.05227 14.8536 7.12516C14.5357 6.60639 14.0995 6.17022 13.5807 5.85232C12.6536 5.28418 11.3916 5.28418 8.86747 5.28418H6.55422C4.03013 5.28418 2.76808 5.28418 1.84097 5.85232C1.3222 6.17022 0.886036 6.60639 0.568134 7.12516C0 8.05227 0 9.31432 0 11.8384L0 12.6095C0 14.4059 0 15.3041 0.293477 16.0126C0.684779 16.9573 1.43533 17.7079 2.38002 18.0992C2.82871 18.285 3.35348 18.3532 4.13427 18.3782C4.96698 18.4048 5.38334 18.4181 5.70253 18.6069C6.02172 18.7957 6.2221 19.1343 6.62285 19.8113L6.87291 20.2338C7.24547 20.8632 8.17618 20.8632 8.54875 20.2338ZM11.0843 12.995C11.6167 12.995 12.0482 12.5635 12.0482 12.0312C12.0482 11.4988 11.6167 11.0673 11.0843 11.0673C10.552 11.0673 10.1205 11.4988 10.1205 12.0312C10.1205 12.5635 10.552 12.995 11.0843 12.995ZM8.6747 12.0312C8.6747 12.5635 8.24317 12.995 7.71084 12.995C7.17852 12.995 6.74699 12.5635 6.74699 12.0312C6.74699 11.4988 7.17852 11.0673 7.71084 11.0673C8.24317 11.0673 8.6747 11.4988 8.6747 12.0312ZM4.33735 12.995C4.86967 12.995 5.30121 12.5635 5.30121 12.0312C5.30121 11.4988 4.86967 11.0673 4.33735 11.0673C3.80503 11.0673 3.37349 11.4988 3.37349 12.0312C3.37349 12.5635 3.80503 12.995 4.33735 12.995Z" fill="currentColor"/>
    <path d="M13.1696 0.706055C14.3214 0.706047 15.2372 0.706041 15.9717 0.775879C16.7249 0.847489 17.3617 0.997593 17.9289 1.34521C18.5125 1.70285 19.0032 2.19354 19.3608 2.77715C19.7085 3.34441 19.8586 3.9812 19.9302 4.73434C20 5.46884 20 6.38476 20 7.53644V8.32305C20 9.14271 20 9.79466 19.9639 10.3233C19.927 10.8642 19.85 11.3286 19.6698 11.7635C19.2296 12.8263 18.3853 13.6707 17.3225 14.1109C17.2959 14.1219 17.2692 14.1325 17.2423 14.1428C17.114 14.1918 17.0042 14.2338 16.9077 14.2652C16.9217 13.7963 16.9217 13.2623 16.9217 12.6597V11.7674C16.9217 10.5658 16.9217 9.55927 16.8439 8.74094C16.7625 7.88423 16.5853 7.08026 16.1325 6.34141C15.6909 5.62081 15.0851 5.01495 14.3645 4.57336C13.6256 4.12059 12.8217 3.94339 11.9649 3.86193C11.1466 3.78412 10.14 3.78415 8.93843 3.78418L6.48326 3.78418C5.66717 3.78416 4.94105 3.78414 4.30276 3.80851C4.3325 3.70546 4.37324 3.58734 4.42106 3.44869C4.5024 3.21288 4.60519 2.98986 4.73554 2.77715C5.09318 2.19354 5.58386 1.70285 6.16748 1.34521C6.73473 0.997593 7.37152 0.847489 8.12466 0.775879C8.85918 0.706041 9.77505 0.706047 10.9268 0.706055H13.1696Z" fill="currentColor"/>
</svg>
