<svg width="20" height="20" viewBox="0 0 20 20" fill="none"
    xmlns="http://www.w3.org/2000/svg">
    <path fill-rule="evenodd" clip-rule="evenodd" d="M0 9.77373V5.86424C0 3.09981 0 1.7176 0.878679 0.858798C1.75736 0 3.17157 0 6 0H14C16.8284 0 18.2426 0 19.1213 0.858797C20 1.7176 20 3.09981 20 5.86424V9.77373C20 12.5382 20 13.9204 19.1213 14.7792C18.4749 15.4109 17.5388 15.5779 15.963 15.6221C15.9593 14.9029 15.7037 14.1848 15.1961 13.6026C15.1674 13.5697 15.1501 13.5288 15.1465 13.4857C15.0211 11.9497 13.7733 10.7301 12.2018 10.6075C12.1577 10.6041 12.1158 10.5871 12.0821 10.5591C10.8822 9.55968 9.11743 9.55968 7.91755 10.5591C7.88386 10.5871 7.84198 10.6041 7.79786 10.6075C6.22638 10.7301 4.9785 11.9497 4.85309 13.4857C4.84957 13.5288 4.83222 13.5697 4.80352 13.6026C4.29595 14.1848 4.04033 14.9029 4.03666 15.6221C2.4611 15.5779 1.52501 15.4109 0.878679 14.7792C0 13.9204 0 12.5382 0 9.77373ZM6.25 3.90949C6.25 3.50465 6.58579 3.17646 7 3.17646H13C13.4142 3.17646 13.75 3.50465 13.75 3.90949C13.75 4.31433 13.4142 4.64252 13 4.64252H7C6.58579 4.64252 6.25 4.31433 6.25 3.90949ZM5 6.59727C4.58579 6.59727 4.25 6.92546 4.25 7.3303C4.25 7.73514 4.58579 8.06333 5 8.06333H15C15.4142 8.06333 15.75 7.73514 15.75 7.3303C15.75 6.92546 15.4142 6.59727 15 6.59727H5Z" fill="currentColor"/>
    <path fill-rule="evenodd" clip-rule="evenodd" d="M11.1092 11.6749C10.4699 11.1425 9.52972 11.1425 8.89048 11.6749C8.61655 11.9031 8.27595 12.041 7.91719 12.0689C7.07997 12.1342 6.41515 12.784 6.34834 13.6023C6.31971 13.9529 6.17863 14.2858 5.94519 14.5536C5.40043 15.1783 5.40043 16.0973 5.94519 16.722C6.17863 16.9898 6.31971 17.3227 6.34834 17.6733C6.41515 18.4916 7.07997 19.1413 7.91719 19.2066C8.27595 19.2346 8.61655 19.3725 8.89048 19.6007C9.52972 20.1331 10.4699 20.1331 11.1092 19.6007C11.3831 19.3725 11.7237 19.2346 12.0824 19.2066C12.9197 19.1413 13.5845 18.4916 13.6513 17.6733C13.6799 17.3227 13.821 16.9898 14.0544 16.722C14.5992 16.0973 14.5992 15.1783 14.0544 14.5536C13.821 14.2858 13.6799 13.9529 13.6513 13.6023C13.5845 12.784 12.9197 12.1342 12.0824 12.0689C11.7237 12.041 11.3831 11.9031 11.1092 11.6749ZM12.0117 15.1965C12.3146 14.9203 12.3309 14.4564 12.0483 14.1604C11.7657 13.8645 11.2911 13.8485 10.9883 14.1247L9.35715 15.6126L9.01174 15.2976C8.70893 15.0213 8.23434 15.0373 7.95171 15.3333C7.66909 15.6293 7.68545 16.0931 7.98826 16.3693L8.84541 17.1512C9.13356 17.4141 9.58073 17.4141 9.86889 17.1512L12.0117 15.1965Z" fill="currentColor"/>
</svg>
