<svg width="18" height="18" viewBox="0 0 18 18" fill="none"
    xmlns="http://www.w3.org/2000/svg">
    <path fill-rule="evenodd" clip-rule="evenodd" d="M13.75 0C14.1642 0 14.5 0.335786 14.5 0.75V14.5L16.15 12.3C16.3985 11.9686 16.8686 11.9015 17.2 12.15C17.5314 12.3985 17.5985 12.8686 17.35 13.2L14.35 17.2C14.1563 17.4583 13.8191 17.5636 13.5128 17.4615C13.2066 17.3594 13 17.0728 13 16.75V0.75C13 0.335786 13.3358 0 13.75 0ZM4 2.75C4 2.33579 4.33579 2 4.75 2H9.75C10.1642 2 10.5 2.33579 10.5 2.75C10.5 3.16421 10.1642 3.5 9.75 3.5H4.75C4.33579 3.5 4 3.16421 4 2.75ZM2 7.75C2 7.33579 2.33579 7 2.75 7H9.75C10.1642 7 10.5 7.33579 10.5 7.75C10.5 8.16421 10.1642 8.5 9.75 8.5H2.75C2.33579 8.5 2 8.16421 2 7.75ZM0 12.75C0 12.3358 0.335786 12 0.75 12H9.75C10.1642 12 10.5 12.3358 10.5 12.75C10.5 13.1642 10.1642 13.5 9.75 13.5H0.75C0.335786 13.5 0 13.1642 0 12.75Z" fill="currentColor"/>
</svg>
