<svg width="23" height="23" viewBox="0 0 23 23" fill="none"
    xmlns="http://www.w3.org/2000/svg">
    <circle cx="11.5" cy="11.5" r="11" stroke="currentColor"/>
    <path d="M15.5035 13.9167V12.6053H16.8155V11.6222H15.5035V10.3108H14.5204V11.6222H13.209V12.6053H14.5204V13.9167H15.5035ZM9.27817 10.2751C9.89188 10.2751 10.3052 10.5373 10.5403 10.7604L11.473 9.85583C10.9053 9.325 10.1649 9 9.27817 9C7.47008 8.99946 6 10.4685 6 12.2782C6 14.0879 7.47008 15.5569 9.27817 15.5569C11.1702 15.5569 12.4263 14.226 12.4263 12.354C12.4263 12.0815 12.3917 11.8882 12.3435 11.6823H9.27654V12.9043H11.0814C10.9958 13.4195 10.5338 14.2888 9.27817 14.2888C8.19321 14.2888 7.30813 13.387 7.30813 12.2825C7.30813 11.1764 8.19321 10.2751 9.27817 10.2751Z" fill="currentColor" stroke="black" stroke-width="0.00064"/>
</svg>
