<svg width="23" height="23" viewBox="0 0 23 23" fill="none"
    xmlns="http://www.w3.org/2000/svg">
    <circle cx="11.5" cy="11.5" r="11" stroke="currentColor"/>
    <path fill-rule="evenodd" clip-rule="evenodd" d="M8.81528 5.07977C7.75715 5.12752 6.84003 5.38621 6.09947 6.12364C5.35633 6.86494 5.10084 7.7857 5.05298 8.83281C5.02323 9.48637 4.84926 14.4239 5.35374 15.7187C5.69394 16.5923 6.36399 17.2639 7.24554 17.6052C7.65689 17.7652 8.12646 17.8736 8.81528 17.9052C14.5748 18.1658 16.7098 18.0239 17.6101 15.7187C17.7699 15.3084 17.8798 14.8392 17.9102 14.1521C18.1735 8.37785 17.8675 7.12624 16.8637 6.12364C16.0676 5.32944 15.131 4.7888 8.81528 5.07977ZM8.8683 16.7439C8.23769 16.7155 7.89555 16.6104 7.66724 16.522C7.09291 16.2988 6.66151 15.8692 6.43967 15.2982C6.05548 14.3143 6.1829 9.64132 6.21718 8.88518C6.25081 8.14452 6.40086 7.46761 6.92346 6.94503C7.57023 6.29985 8.40586 5.98366 14.0955 6.24044C14.838 6.27398 15.5165 6.42373 16.0404 6.94503C16.6872 7.59019 17.008 8.43225 16.7467 14.1001C16.7182 14.7291 16.6128 15.0704 16.5242 15.2982C15.9389 16.7982 14.5923 17.0064 8.8683 16.7439ZM14.1583 8.04824C14.1583 8.47535 14.5056 8.82266 14.9344 8.82266C15.3632 8.82266 15.7112 8.47535 15.7112 8.04824C15.7112 7.62114 15.3632 7.27415 14.9344 7.27415C14.5056 7.27415 14.1583 7.62114 14.1583 8.04824ZM8.16073 11.4922C8.16073 13.3219 9.64767 14.8053 11.4819 14.8053C13.3162 14.8053 14.8031 13.3219 14.8031 11.4922C14.8031 9.66245 13.3162 8.17996 11.4819 8.17996C9.64767 8.17996 8.16073 9.66245 8.16073 11.4922ZM9.32622 11.4922C9.32622 10.305 10.2912 9.34189 11.4819 9.34189C12.6726 9.34189 13.6376 10.305 13.6376 11.4922C13.6376 12.6799 12.6726 13.6434 11.4819 13.6434C10.2912 13.6434 9.32622 12.6799 9.32622 11.4922Z" fill="currentColor"/>
</svg>
