<svg width="23" height="23" viewBox="0 0 23 23" fill="none"
    xmlns="http://www.w3.org/2000/svg">
    <circle cx="11.5" cy="11.5" r="11" stroke="currentColor"/>
    <path fill-rule="evenodd" clip-rule="evenodd" d="M9.0885 18C13.994 18 16.6772 12.9978 16.6772 8.66049C16.6772 8.5181 16.6772 8.37678 16.6694 8.23599C17.1914 7.77201 17.6418 7.19594 18 6.53678C17.5138 6.80236 16.997 6.97654 16.4686 7.05333C17.025 6.64295 17.4416 5.99823 17.6412 5.23748C17.1173 5.61985 16.5446 5.88972 15.9473 6.03451C14.9372 4.71299 13.2478 4.64896 12.1734 5.89209C11.4811 6.69364 11.1867 7.88874 11.4018 9.02866C9.2575 8.89587 7.2594 7.64957 5.9048 5.5993C5.19695 7.0992 5.559 9.01729 6.73095 9.98043C6.3065 9.96523 5.89115 9.82459 5.52 9.5702V9.61186C5.52065 11.1742 6.4157 12.5194 7.6598 12.829C7.2672 12.961 6.8551 12.9801 6.456 12.8849C6.80505 14.2224 7.8067 15.1385 8.94745 15.1649C8.003 16.0785 6.83625 16.5745 5.63505 16.5729C5.42315 16.5721 5.21125 16.5569 5 16.5257C6.22005 17.4889 7.639 18 9.0885 17.9976" fill="currentColor"/>
</svg>
