<svg width="27" height="27" viewBox="0 0 27 27" fill="none" xmlns="http://www.w3.org/2000/svg">
<path d="M26.6667 13.3333C26.6667 13.6869 26.5496 14.0261 26.3412 14.2761C26.1329 14.5261 25.8503 14.6666 25.5556 14.6666H3.79381L11.8977 24.3894C12.0009 24.5133 12.0828 24.6603 12.1387 24.8222C12.1946 24.984 12.2233 25.1575 12.2233 25.3327C12.2233 25.5078 12.1946 25.6813 12.1387 25.8432C12.0828 26.005 12.0009 26.1521 11.8977 26.2759C11.7945 26.3998 11.6719 26.4981 11.537 26.5651C11.4022 26.6322 11.2576 26.6667 11.1116 26.6667C10.9656 26.6667 10.8211 26.6322 10.6862 26.5651C10.5513 26.4981 10.4288 26.3998 10.3255 26.2759L0.325863 14.2766C0.22256 14.1528 0.140608 14.0057 0.0846938 13.8439C0.0287798 13.682 0 13.5085 0 13.3333C0 13.1581 0.0287798 12.9846 0.0846938 12.8228C0.140608 12.6609 0.22256 12.5139 0.325863 12.3901L10.3255 0.39072C10.534 0.140546 10.8168 -2.63601e-09 11.1116 0C11.4065 2.63601e-09 11.6892 0.140546 11.8977 0.39072C12.1062 0.640893 12.2233 0.980201 12.2233 1.334C12.2233 1.6878 12.1062 2.02711 11.8977 2.27728L3.79381 12.0001H25.5556C25.8503 12.0001 26.1329 12.1405 26.3412 12.3906C26.5496 12.6406 26.6667 12.9797 26.6667 13.3333Z" fill="#FF5117"/>
</svg>
