<svg width="180" height="39" viewBox="0 0 180 39" fill="none" xmlns="http://www.w3.org/2000/svg">
<path fill-rule="evenodd" clip-rule="evenodd" d="M139.189 24.1896C138.802 23.1483 138.608 21.2201 138.608 18.8291V15.0498H144.411V38.1884H141.51C139.924 38.1884 138.608 38.1499 138.608 38.0727C138.608 38.0483 138.717 37.7152 138.875 37.2297C138.966 36.9477 139.075 36.6144 139.189 36.2602C139.262 36.032 139.333 35.8125 139.399 35.6093L139.402 35.5979L139.409 35.5776L139.409 35.5771L139.41 35.5746L139.412 35.569C139.618 34.934 139.769 34.4668 139.769 34.4091C139.769 34.3706 139.498 34.332 139.189 34.332C138.879 34.332 138.26 34.949 137.835 35.6817C137.409 36.4145 136.674 37.3015 136.21 37.61C135.707 37.9185 134.546 38.3041 133.579 38.4198C132.341 38.6126 131.297 38.497 130.02 38.0727C128.859 37.6485 127.815 36.9544 127.235 36.1445C126.732 35.4889 126.113 34.2163 125.881 33.3679C125.649 32.5195 125.455 31.054 125.455 30.0899C125.455 29.1258 125.649 27.6989 125.842 26.8891C126.074 26.1178 126.693 24.9223 127.312 24.2667C127.892 23.5725 128.821 22.8013 129.44 22.5313C130.02 22.2228 131.374 21.9914 132.419 21.9914C133.502 21.9914 134.972 22.2999 135.746 22.647C136.519 23.0326 137.486 23.9196 137.873 24.5752C138.299 25.2694 138.879 25.8478 139.189 25.8478C139.692 25.8478 139.692 25.655 139.189 24.1896ZM36.8259 18.0964C36.7872 16.978 36.9806 16.5152 37.6769 16.0139C38.2572 15.6283 39.1857 15.4354 40.1915 15.5126C41.0426 15.5897 42.0484 15.8982 42.4353 16.2067C42.8608 16.5924 43.093 17.3251 43.093 18.2506C43.0543 19.2919 42.8222 19.8703 42.2032 20.2946C41.7003 20.6031 40.6171 20.873 39.766 20.8345C38.8375 20.8345 37.9477 20.5645 37.5222 20.1789C37.1353 19.7932 36.8259 18.9063 36.8259 18.0964ZM75.1635 18.5977C72.6876 19.369 72.649 19.4076 72.765 20.6802L72.8424 21.9914H68.9738V27.0048H72.8424C72.8424 36.1445 72.9197 36.7616 73.6161 37.4172C74.3124 38.1113 74.9314 38.1884 79.419 38.1884H84.4481L84.2547 33.3679L78.2584 33.1751V27.0048H83.6744L83.481 22.1842L78.2584 21.9914C78.2584 18.7134 78.1423 17.7879 77.9876 17.8264C77.8844 17.8264 77.2827 17.9978 76.4803 18.2264C76.0791 18.3406 75.6278 18.4692 75.1635 18.5977ZM33.731 24.768C33.6923 23.534 33.8084 22.377 34.0018 22.2228C34.1952 22.0685 35.9748 21.9914 37.9091 22.0685C40.6944 22.1842 41.6229 22.3385 42.1645 22.8784C42.7448 23.4568 42.8995 24.3824 43.0543 33.1751H47.3097V38.1884H33.3828V33.1751H37.6383V27.0048H33.7697L33.731 24.768ZM49.4374 22.2614C49.2827 22.4156 49.1666 26.0407 49.2053 30.3599L49.244 38.1884H55.0469C55.0469 29.4729 55.0856 29.2801 56.1301 28.1232C57.0199 27.1205 57.4841 26.9277 58.9928 26.8891C60.2695 26.8505 61.0432 27.0433 61.5074 27.5061C62.0877 28.0846 62.2425 29.0101 62.3198 33.2136L62.3972 38.1884H67.8132C67.6585 27.2362 67.5037 26.272 66.8461 25.1537C66.4205 24.421 65.5694 23.4568 64.9892 23.0326C64.2541 22.4542 63.1709 22.1842 61.7009 22.0685C60.1534 21.9914 59.1089 22.1842 58.1418 22.647C57.2907 23.1098 56.4396 23.9967 55.8206 25.1922C55.279 26.1949 54.66 27.0048 54.3892 27.0048C54.1184 27.0048 53.9637 26.8119 54.0797 26.542C54.1571 26.272 54.4279 25.4622 54.6987 24.6909C54.9695 23.9582 55.0469 23.0712 54.9308 22.6856C54.6987 22.1456 54.1958 21.9914 52.2228 21.9914C50.8688 21.9914 49.6309 22.1071 49.4374 22.2614ZM87.3109 24.7295C87.9685 24.0353 89.2065 23.1098 90.0576 22.7241C91.0634 22.2999 92.5335 22.0299 94.1196 22.0299C95.7444 22.0299 97.1758 22.2614 98.1816 22.7241C99.0327 23.1483 100.193 23.9582 100.735 24.5752C101.315 25.1923 101.973 26.272 102.205 27.0048C102.437 27.7761 102.63 29.0101 102.63 31.2468H96.8276C91.9532 31.2468 91.0247 31.3625 91.0247 31.8253C91.0247 32.1724 91.4503 32.8666 91.9919 33.3679C92.6495 34.0621 93.3846 34.332 94.3517 34.332C95.2802 34.332 96.0152 34.0621 96.6729 33.3679C97.5239 32.558 97.9882 32.4038 102.63 32.4038L102.437 33.4836C102.321 34.062 101.895 34.9876 101.547 35.4889C101.16 36.0288 99.9998 36.9158 98.9553 37.4172C97.4079 38.227 96.4408 38.3813 94.1196 38.3813C91.7598 38.3813 90.9087 38.227 89.516 37.4172C88.5488 36.9158 87.3883 35.8746 86.8853 35.1033C86.3824 34.3706 85.8408 32.9437 85.6087 31.941C85.3379 30.6684 85.3766 29.5115 85.6861 28.0846C85.9569 26.812 86.5759 25.5779 87.3109 24.7295ZM104.952 30.0899V38.1884H110.368C110.406 32.3652 110.638 30.0899 110.871 29.3186C111.219 28.3545 111.76 27.8146 112.805 27.3133C113.656 26.9276 114.739 26.7348 115.397 26.8119C116.054 26.9276 116.828 27.2747 117.138 27.5832C117.602 28.046 117.718 29.2415 117.718 33.1751V38.1884H123.521C123.327 27.1976 123.289 26.7348 122.322 25.0765C121.703 23.9967 120.774 23.1098 119.923 22.6856C119.149 22.2999 117.679 21.9914 116.673 21.9914C115.397 21.9914 114.391 22.2614 113.463 22.8784C112.727 23.3412 111.76 24.4595 111.335 25.3851C110.909 26.272 110.368 27.0048 110.097 27.0048C109.787 27.0048 109.671 26.6963 109.826 26.1564C109.942 25.6936 110.174 24.5366 110.29 23.6497L110.561 21.9914H104.952V30.0899ZM148.589 24.5752C149.17 23.9582 150.33 23.1483 151.181 22.7241C152.148 22.2999 153.618 22.0299 155.166 22.0299C156.481 22.0299 158.222 22.2613 159.034 22.6084C159.808 22.9555 161.046 23.7654 161.742 24.4595C162.439 25.1151 163.174 26.272 163.367 27.0048C163.599 27.7761 163.754 29.0101 163.754 31.2468H157.951C153.077 31.2468 152.148 31.3625 152.148 31.8253C152.148 32.1724 152.574 32.8666 153.116 33.3679C153.773 34.0621 154.508 34.332 155.475 34.332C156.404 34.332 157.139 34.0621 157.797 33.3679C158.648 32.558 159.112 32.4038 161.278 32.4038C163.367 32.4038 163.754 32.5195 163.754 33.0979C163.793 33.4836 163.367 34.3706 162.903 35.1033C162.4 35.8746 161.317 36.8387 160.466 37.34C159.615 37.8028 157.951 38.3041 156.791 38.4584C155.514 38.6126 153.967 38.5355 152.922 38.227C151.955 37.9956 150.562 37.3786 149.827 36.9158C149.015 36.3759 148.125 35.2576 147.545 34.1392C146.887 32.7894 146.616 31.5939 146.655 30.0899C146.655 28.933 146.887 27.4675 147.119 26.8119C147.351 26.1949 148.048 25.1923 148.589 24.5752ZM168.087 22.3385C167.623 22.4927 166.965 23.0326 166.656 23.5725C166.23 24.3052 166.075 26.1178 166.075 31.3625V38.1884H171.878V27.0048H180.002L179.809 22.1842C171.414 22.1071 168.59 22.1842 168.087 22.3385ZM90.9858 28.0073C90.9858 27.6988 91.4113 27.0818 92.0303 26.6576C92.6106 26.1948 93.5391 25.8477 94.0807 25.8477C94.6223 25.8092 95.5507 26.1562 96.131 26.619C96.75 27.0432 97.2142 27.6602 97.2142 27.9688C97.2142 28.4315 96.5952 28.5472 94.1194 28.5472C91.7208 28.5472 91.0245 28.4315 90.9858 28.0073ZM152.109 28.0073C152.109 27.6988 152.535 27.0818 153.154 26.6576C153.734 26.1948 154.663 25.8477 155.204 25.8477C155.746 25.8092 156.674 26.1562 157.255 26.619C157.874 27.0432 158.338 27.6602 158.338 27.9688C158.338 28.4315 157.719 28.5472 155.243 28.5472C152.844 28.5472 152.148 28.4315 152.109 28.0073ZM133.308 26.889C132.844 26.9661 132.07 27.506 131.606 28.0845C130.987 28.8943 130.832 29.4728 130.987 30.6683C131.142 31.6324 131.529 32.4808 132.109 32.905C132.65 33.3292 133.618 33.5992 134.623 33.5606C135.552 33.5606 136.674 33.3678 137.138 33.1364C137.641 32.8664 138.144 32.4808 138.299 32.2494C138.453 32.018 138.608 31.1696 138.608 30.3598C138.608 29.5885 138.415 28.5858 138.221 28.1616C137.989 27.7374 137.177 27.236 136.364 27.0047C135.591 26.8118 134.739 26.6576 134.546 26.6576C134.45 26.6735 134.301 26.7027 134.126 26.7369L134.126 26.737C133.879 26.7854 133.58 26.8438 133.308 26.889Z" fill="white"/>
<path d="M0 18.0204V9.01018V0H27.0305V17.9847L22.5516 22.4507C20.091 24.908 18.0584 26.9023 18.0299 26.881C17.9942 26.8667 17.9728 24.8724 17.9728 18.056L8.98641 27.0305V18.0204H0Z" fill="#FF5117"/>
</svg>
