<svg width="106" height="106" viewBox="0 0 106 106" fill="none" xmlns="http://www.w3.org/2000/svg">
<g filter="url(#filter0_d_337_1690)">
<path fill-rule="evenodd" clip-rule="evenodd" d="M59.4186 20H63.6977C67.732 20 69.7492 20 71.0025 21.2986C72.2558 22.5972 72.2558 24.6873 72.2558 28.8675V62.6747H74.3953C75.2816 62.6747 76 63.4191 76 64.3373C76 65.2556 75.2816 66 74.3953 66H31.6047C30.7184 66 30 65.2556 30 64.3373C30 63.4191 30.7184 62.6747 31.6047 62.6747H33.7442V35.5181C33.7442 31.3379 33.7442 29.2478 34.9975 27.9492C36.2508 26.6506 38.268 26.6506 42.3023 26.6506H50.8605C54.8948 26.6506 56.912 26.6506 58.1653 27.9492C59.4186 29.2478 59.4186 31.3379 59.4186 35.5181V62.6747H62.6279V35.5181L62.6279 35.3197C62.6281 33.4007 62.6283 31.6412 62.4426 30.21C62.2381 28.6339 61.7569 26.968 60.4346 25.5979C59.1123 24.2277 57.5045 23.7292 55.9834 23.5173C54.6215 23.3276 52.9517 23.3251 51.1301 23.3253C51.3104 22.4668 51.6114 21.8191 52.1138 21.2986C53.3671 20 55.3843 20 59.4186 20ZM38.5581 33.3012C38.5581 32.3829 39.2766 31.6386 40.1628 31.6386H53C53.8862 31.6386 54.6047 32.3829 54.6047 33.3012C54.6047 34.2195 53.8862 34.9639 53 34.9639H40.1628C39.2766 34.9639 38.5581 34.2195 38.5581 33.3012ZM38.5581 39.9518C38.5581 39.0336 39.2766 38.2892 40.1628 38.2892H53C53.8862 38.2892 54.6047 39.0336 54.6047 39.9518C54.6047 40.8701 53.8862 41.6145 53 41.6145H40.1628C39.2766 41.6145 38.5581 40.8701 38.5581 39.9518ZM38.5581 46.6024C38.5581 45.6842 39.2766 44.9398 40.1628 44.9398H53C53.8862 44.9398 54.6047 45.6842 54.6047 46.6024C54.6047 47.5207 53.8862 48.2651 53 48.2651H40.1628C39.2766 48.2651 38.5581 47.5207 38.5581 46.6024ZM46.5814 56.0241C47.4676 56.0241 48.186 56.7685 48.186 57.6867V62.6747H44.9767V57.6867C44.9767 56.7685 45.6952 56.0241 46.5814 56.0241Z" fill="#F5F5F5"/>
</g>
<defs>
<filter id="filter0_d_337_1690" x="0" y="0" width="106" height="106" filterUnits="userSpaceOnUse" color-interpolation-filters="sRGB">
<feFlood flood-opacity="0" result="BackgroundImageFix"/>
<feColorMatrix in="SourceAlpha" type="matrix" values="0 0 0 0 0 0 0 0 0 0 0 0 0 0 0 0 0 0 127 0" result="hardAlpha"/>
<feOffset dy="10"/>
<feGaussianBlur stdDeviation="15"/>
<feComposite in2="hardAlpha" operator="out"/>
<feColorMatrix type="matrix" values="0 0 0 0 1 0 0 0 0 1 0 0 0 0 1 0 0 0 0.4 0"/>
<feBlend mode="normal" in2="BackgroundImageFix" result="effect1_dropShadow_337_1690"/>
<feBlend mode="normal" in="SourceGraphic" in2="effect1_dropShadow_337_1690" result="shape"/>
</filter>
</defs>
</svg>
