<svg width="106" height="107" viewBox="0 0 106 107" fill="none" xmlns="http://www.w3.org/2000/svg">
<g filter="url(#filter0_d_337_1701)">
<path d="M57.1077 55.7901C57.5464 55.6765 57.9726 55.5081 58.8251 55.1713L69.4521 50.9723C69.709 50.8708 69.7608 50.5265 69.5574 50.3396C68.814 49.6567 67.9228 48.5932 67.3197 47.0668C66.7166 45.5404 66.6401 44.1551 66.7159 43.1484C66.7366 42.873 66.4635 42.6571 66.2066 42.7586L55.5796 46.9576L55.5796 46.9577C54.7272 47.2945 54.301 47.4629 53.9031 47.6798C53.4339 47.9358 52.9939 48.2421 52.5909 48.5933C52.2493 48.8911 51.9434 49.2323 51.3316 49.9148L50.5411 50.7967L49.284 52.1989L48.1054 53.5137C47.8043 53.8496 47.7188 54.3267 47.8846 54.7462C48.0503 55.1657 48.4389 55.4555 48.8882 55.4949L50.6472 55.6489L52.5233 55.8132L53.7031 55.9165L53.7031 55.9165C54.6162 55.9965 55.0727 56.0364 55.5255 56.0203C56.0597 56.0013 56.5903 55.9241 57.1077 55.7901Z" fill="#F5F5F5"/>
<path d="M72.7794 49.6576C75.0475 48.7614 76.1597 46.1961 75.2635 43.928C74.3673 41.6599 71.8021 40.5477 69.5339 41.4439L69.1923 41.5789L69.1922 41.5789C69.1411 41.5991 69.1155 41.6092 69.0804 41.6264C68.8519 41.738 68.6443 41.9781 68.5668 42.2202C68.5549 42.2574 68.5492 42.2817 68.5378 42.3302L68.5378 42.3302C68.4866 42.5473 68.426 42.8707 68.3955 43.2749C68.3347 44.0831 68.3951 45.205 68.8862 46.4478C69.3773 47.6907 70.1 48.5509 70.6969 49.0992C70.9954 49.3734 71.2607 49.5681 71.4464 49.6915L71.4464 49.6915C71.488 49.7191 71.5087 49.7329 71.5429 49.7519C71.7649 49.8757 72.0806 49.9091 72.3236 49.8344C72.3609 49.8229 72.3865 49.8128 72.4377 49.7926L72.7794 49.6576Z" fill="#F5F5F5"/>
<path fill-rule="evenodd" clip-rule="evenodd" d="M45.2508 21.1067C42.1389 22.3286 40.6286 25.8121 37.6081 32.7789L34.4043 40.1684C31.3838 47.1352 29.8735 50.6186 31.1087 53.7253C32.3439 56.832 35.8422 58.3487 42.8389 61.3822L46.5494 62.9909C53.546 66.0244 57.0443 67.5411 60.1562 66.3191C63.2182 65.1168 64.7296 61.7249 67.6547 54.9796L60.1688 57.9191C59.4521 58.2008 58.8651 58.4315 58.2462 58.5904C57.5212 58.7765 56.7778 58.8832 56.0291 58.9086C55.3901 58.9304 54.7608 58.8742 53.9925 58.8057L49.0865 58.3697C47.4979 58.2285 46.1227 57.2048 45.5344 55.7252C44.9462 54.2456 45.2457 52.5643 46.3083 51.3821L47.4728 50.0863L49.4959 47.8353L49.5893 47.7314C50.103 47.1594 50.5237 46.691 51.0051 46.2727C51.5691 45.7827 52.1852 45.3556 52.8423 44.999C53.4033 44.6945 53.9905 44.4642 54.7074 44.183L65.3493 40.0043L68.3026 38.8447L68.6406 38.712C70.5408 37.9658 72.5669 38.0594 74.3064 38.814C74.8511 36.7885 74.8948 35.2006 74.2983 33.7005C73.0631 30.5938 69.5648 29.0771 62.5682 26.0436L58.8577 24.4349C51.8611 21.4015 48.3628 19.8847 45.2508 21.1067ZM46.2939 34.3501C46.6256 33.5849 47.5176 33.2347 48.286 33.5678L60.3452 38.7962C61.1137 39.1294 61.4677 40.0198 61.1359 40.785C60.8042 41.5502 59.9123 41.9004 59.1438 41.5673L47.0846 36.3389C46.3161 36.0057 45.9621 35.1153 46.2939 34.3501ZM43.0901 41.7395C43.4219 40.9743 44.3138 40.6241 45.0823 40.9573L49.7204 42.9682C50.4889 43.3014 50.8429 44.1918 50.5111 44.957C50.1794 45.7222 49.2875 46.0724 48.519 45.7392L43.8809 43.7283C43.1124 43.3952 42.7584 42.5047 43.0901 41.7395ZM39.8864 49.129C40.2181 48.3638 41.11 48.0136 41.8785 48.3467L44.6614 49.5533C45.4299 49.8865 45.7839 50.7769 45.4521 51.5421C45.1204 52.3073 44.2284 52.6575 43.46 52.3243L40.6771 51.1178C39.9086 50.7846 39.5546 49.8942 39.8864 49.129Z" fill="#F5F5F5"/>
</g>
<defs>
<filter id="filter0_d_337_1701" x="0.679688" y="0.682617" width="104.891" height="106.061" filterUnits="userSpaceOnUse" color-interpolation-filters="sRGB">
<feFlood flood-opacity="0" result="BackgroundImageFix"/>
<feColorMatrix in="SourceAlpha" type="matrix" values="0 0 0 0 0 0 0 0 0 0 0 0 0 0 0 0 0 0 127 0" result="hardAlpha"/>
<feOffset dy="10"/>
<feGaussianBlur stdDeviation="15"/>
<feComposite in2="hardAlpha" operator="out"/>
<feColorMatrix type="matrix" values="0 0 0 0 1 0 0 0 0 1 0 0 0 0 1 0 0 0 0.4 0"/>
<feBlend mode="normal" in2="BackgroundImageFix" result="effect1_dropShadow_337_1701"/>
<feBlend mode="normal" in="SourceGraphic" in2="effect1_dropShadow_337_1701" result="shape"/>
</filter>
</defs>
</svg>
