<svg width="115" height="114" viewBox="0 0 115 114" fill="none" xmlns="http://www.w3.org/2000/svg">
<g filter="url(#filter0_d_337_1715)">
<path d="M52.0628 22.0633C52.7705 21.3569 53.5235 20.709 53.7148 20.6212C53.9099 20.5189 54.2113 20.476 54.3964 20.5255C54.5958 20.5788 57.3129 23.3126 60.6552 26.8467C63.921 30.2677 66.6658 33.2405 66.762 33.4515C66.8581 33.6625 66.8911 33.9956 66.8372 34.1974C66.769 34.3953 66.2049 35.0783 65.5632 35.7097C64.9214 36.341 64.1283 37.0246 63.8169 37.2192C63.5055 37.4139 62.9909 37.5697 62.6403 37.5686C62.2573 37.5743 61.8586 37.4677 61.5646 37.3119C61.3133 37.1675 58.832 34.6357 56.0434 31.7129C53.2585 28.7756 50.8612 26.1582 50.6912 25.8811C50.5315 25.6222 50.3973 25.154 50.3709 24.8535C50.3586 24.5569 50.4392 24.0843 50.5551 23.8219C50.6568 23.5557 51.341 22.7659 52.0628 22.0633Z" fill="white"/>
<path d="M45.0769 31.2737C46.8731 29.5366 48.5427 27.9221 48.8767 27.5886L49.5146 26.9717L51.2791 28.8177C52.2398 29.8466 54.7303 32.4581 60.5593 38.6181L59.0317 40.1089C58.2039 40.9221 57.5325 41.6073 57.539 41.6399C57.5598 41.6764 60.3286 44.3314 63.7052 47.5658C67.0858 50.7859 73.0769 56.5105 77.0161 60.266L84.5581 67.7796C84.8489 68.2897 84.9104 68.6304 84.8494 69.2008C84.7908 69.6484 84.6455 70.1345 84.4792 70.4143C84.3205 70.6653 83.8416 71.2012 83.4154 71.5968C82.8472 72.1243 82.4349 72.3538 81.9176 72.4625C81.4973 72.5509 80.9177 72.5503 80.5475 72.4513C80.0491 72.3181 79.7382 72.1114 79.1664 71.5107L66.9006 57.2988C60.5478 49.9025 55.3142 43.8554 55.2676 43.8583C55.2068 43.8575 54.5223 44.4774 53.7204 45.2513C52.6886 46.257 52.2236 46.6268 52.0824 46.5273C51.98 46.4536 49.4999 43.8603 46.5569 40.7727C43.6321 37.6745 41.2516 35.1079 41.267 35.0502C41.2824 34.9926 42.8436 33.4335 44.7574 31.5827L45.0769 31.2737Z" fill="white"/>
<path d="M36.7721 37.5388C37.9602 36.405 38.3012 36.1565 38.8871 36.0198C39.2789 35.9238 39.7731 35.9015 39.9867 35.9586C40.2145 36.0195 40.5758 36.2088 40.8013 36.3926C41.0268 36.5764 43.4303 39.0566 46.1413 41.9277C48.8561 44.7845 51.2354 47.4126 51.4185 47.7549C51.6431 48.1701 51.7176 48.5761 51.6629 49.0092C51.6169 49.3521 51.4613 49.82 51.3 50.0239C51.1491 50.2461 50.4518 50.9707 49.7481 51.6627C48.9642 52.4259 48.3287 52.9199 48.0739 52.9599C47.8514 52.993 47.5304 52.9381 47.3503 52.8127C47.1664 52.7018 44.4297 49.8701 41.252 46.519C38.0705 43.1823 35.3996 40.2755 35.3034 40.0645C35.2073 39.8535 35.1924 39.5098 35.2502 39.2937C35.3118 39.0631 35.9521 38.3232 36.7721 37.5388Z" fill="white"/>
<path d="M36.187 63.9734C36.4238 63.7593 36.8276 63.5452 37.0922 63.4822C37.3568 63.4192 42.6211 63.3814 48.7906 63.394C59.1799 63.4066 60.0433 63.4318 60.4611 63.6333C60.7118 63.7467 61.0042 64.0238 61.1157 64.2254C61.2689 64.4899 61.3246 64.9937 61.3246 67.1225L35.7692 67.0595V65.7117C35.7692 64.3765 35.7831 64.3513 36.187 63.9734Z" fill="white"/>
<path d="M30.3378 69.2135C30.5049 68.9112 30.867 68.5711 31.2431 68.3569L31.8698 68.0042H48.4842C64.8062 68.0042 65.0987 68.0168 65.6418 68.2562C65.9482 68.3947 66.3242 68.6718 66.4913 68.8608C66.6445 69.0497 66.8395 69.4024 66.9091 69.6417C66.9927 69.8937 67.0345 70.8258 66.9648 73.3576L48.6513 73.3828C34.3905 73.408 30.296 73.3828 30.1568 73.2569C30.0036 73.1435 29.9757 72.7152 30.0175 71.4052C30.0593 70.0196 30.115 69.6165 30.3378 69.2135Z" fill="white"/>
</g>
<defs>
<filter id="filter0_d_337_1715" x="0" y="0.504883" width="114.867" height="112.887" filterUnits="userSpaceOnUse" color-interpolation-filters="sRGB">
<feFlood flood-opacity="0" result="BackgroundImageFix"/>
<feColorMatrix in="SourceAlpha" type="matrix" values="0 0 0 0 0 0 0 0 0 0 0 0 0 0 0 0 0 0 127 0" result="hardAlpha"/>
<feOffset dy="10"/>
<feGaussianBlur stdDeviation="15"/>
<feComposite in2="hardAlpha" operator="out"/>
<feColorMatrix type="matrix" values="0 0 0 0 1 0 0 0 0 1 0 0 0 0 1 0 0 0 0.4 0"/>
<feBlend mode="normal" in2="BackgroundImageFix" result="effect1_dropShadow_337_1715"/>
<feBlend mode="normal" in="SourceGraphic" in2="effect1_dropShadow_337_1715" result="shape"/>
</filter>
</defs>
</svg>
