<svg width="107" height="107" viewBox="0 0 107 107" fill="none" xmlns="http://www.w3.org/2000/svg">
<g filter="url(#filter0_d_337_1693)">
<path d="M55.3638 39.3102C60.5318 39.2417 64.666 35.0126 64.5977 29.8644C64.5295 24.7162 60.2846 20.5984 55.1165 20.6669C49.9485 20.7354 45.8143 24.9644 45.8826 30.1126C45.9509 35.2609 50.1957 39.3787 55.3638 39.3102Z" fill="#F5F5F5"/>
<path d="M33.5435 27.465C33.296 26.5317 32.3359 25.9749 31.3989 26.2215C30.4619 26.4681 29.903 27.4246 30.1504 28.358L31.0912 31.9067C32.827 38.4543 37.8943 43.5634 44.363 45.4101L44.5012 55.8347C44.5289 57.9286 44.552 59.6745 44.7575 61.0581C44.9744 62.5185 45.4262 63.8337 46.5058 64.881C47.5854 65.9283 48.9171 66.3434 50.3884 66.5206C51.7823 66.6885 53.535 66.6652 55.6369 66.6372L55.8802 66.634C57.9821 66.6062 59.7348 66.583 61.1238 66.3782C62.5898 66.162 63.9101 65.7118 64.9615 64.6362C66.013 63.5606 66.4298 62.234 66.6079 60.7684C66.7765 59.3798 66.7533 57.6338 66.7255 55.54L66.5959 45.7686C68.9002 46.4198 70.6798 48.383 71.0053 50.8567L72.6953 63.7017C72.8212 64.6589 73.7022 65.3331 74.6631 65.2075C75.624 65.082 76.3008 64.2043 76.1749 63.2471L74.4849 50.4021C73.8492 45.5701 69.6834 41.9773 64.7916 42.0422L46.2742 42.2878C40.5403 41.0269 35.9863 36.6793 34.4843 31.0137L33.5435 27.465Z" fill="#F5F5F5"/>
</g>
<defs>
<filter id="filter0_d_337_1693" x="0.09375" y="0.666016" width="106.094" height="105.991" filterUnits="userSpaceOnUse" color-interpolation-filters="sRGB">
<feFlood flood-opacity="0" result="BackgroundImageFix"/>
<feColorMatrix in="SourceAlpha" type="matrix" values="0 0 0 0 0 0 0 0 0 0 0 0 0 0 0 0 0 0 127 0" result="hardAlpha"/>
<feOffset dy="10"/>
<feGaussianBlur stdDeviation="15"/>
<feComposite in2="hardAlpha" operator="out"/>
<feColorMatrix type="matrix" values="0 0 0 0 1 0 0 0 0 1 0 0 0 0 1 0 0 0 0.4 0"/>
<feBlend mode="normal" in2="BackgroundImageFix" result="effect1_dropShadow_337_1693"/>
<feBlend mode="normal" in="SourceGraphic" in2="effect1_dropShadow_337_1693" result="shape"/>
</filter>
</defs>
</svg>
