<svg width="96" height="105" viewBox="0 0 96 105" fill="none" xmlns="http://www.w3.org/2000/svg">
<g filter="url(#filter0_d_337_1706)">
<ellipse cx="47.5" cy="30" rx="10.5" ry="10" fill="white"/>
<path d="M57 45.3328C54.3813 44.4839 51.3619 44 48.1474 44C38.1249 44 30 48.704 30 54.5067C30 60.1293 37.6282 64.7204 47.2196 65C47.1492 64.6683 47.0949 64.339 47.0519 64.0156C46.8506 62.4981 46.8509 60.644 46.8511 58.6726V58.2209C46.8509 56.2495 46.8506 54.3954 47.0519 52.8779C47.276 51.1893 47.8116 49.3409 49.319 47.8137C50.8263 46.2864 52.6506 45.7438 54.3173 45.5167C55.126 45.4066 56.0316 45.356 57 45.3328Z" fill="white"/>
<path fill-rule="evenodd" clip-rule="evenodd" d="M49.2031 55.7529C49.2031 51.3347 52.7848 47.7529 57.2031 47.7529H61.9988C64.208 47.7529 65.9988 49.5438 65.9988 51.7529V60.5486C65.9988 62.7578 64.208 64.5486 61.9988 64.5486H53.2031C50.994 64.5486 49.2031 62.7578 49.2031 60.5486V55.7529ZM55.6288 52.3185C55.8633 52.1618 56.1095 52.0259 56.3646 51.9117C57.0881 51.5877 57.4499 51.4257 57.9312 51.7375C58.4124 52.0493 58.4124 52.5608 58.4124 53.5837V54.3748C58.4124 55.3693 58.4124 55.8666 58.7214 56.1755C59.0303 56.4845 59.5276 56.4845 60.5221 56.4845H61.3132C62.3362 56.4845 62.8476 56.4845 63.1594 56.9658C63.4713 57.447 63.3092 57.8088 62.9852 58.5324C62.871 58.7874 62.7351 59.0336 62.5784 59.2681C62.0279 60.092 61.2454 60.7342 60.3298 61.1135C59.4143 61.4927 58.4069 61.5919 57.435 61.3986C56.463 61.2053 55.5703 60.7281 54.8696 60.0274C54.1688 59.3266 53.6917 58.4339 53.4983 57.462C53.305 56.49 53.4042 55.4826 53.7834 54.5671C54.1627 53.6515 54.8049 52.869 55.6288 52.3185ZM60.9835 51.643C62.0198 52.0512 62.8457 52.8772 63.254 53.9134C63.5594 54.6886 62.8571 55.3873 62.0239 55.3873H60.0124C59.7347 55.3873 59.5096 55.1622 59.5096 54.8845V52.873C59.5096 52.0398 60.2083 51.3376 60.9835 51.643Z" fill="white"/>
</g>
<defs>
<filter id="filter0_d_337_1706" x="0" y="0" width="96" height="105" filterUnits="userSpaceOnUse" color-interpolation-filters="sRGB">
<feFlood flood-opacity="0" result="BackgroundImageFix"/>
<feColorMatrix in="SourceAlpha" type="matrix" values="0 0 0 0 0 0 0 0 0 0 0 0 0 0 0 0 0 0 127 0" result="hardAlpha"/>
<feOffset dy="10"/>
<feGaussianBlur stdDeviation="15"/>
<feComposite in2="hardAlpha" operator="out"/>
<feColorMatrix type="matrix" values="0 0 0 0 1 0 0 0 0 1 0 0 0 0 1 0 0 0 0.4 0"/>
<feBlend mode="normal" in2="BackgroundImageFix" result="effect1_dropShadow_337_1706"/>
<feBlend mode="normal" in="SourceGraphic" in2="effect1_dropShadow_337_1706" result="shape"/>
</filter>
</defs>
</svg>
