<svg width="103" height="103" viewBox="0 0 103 103" fill="none" xmlns="http://www.w3.org/2000/svg">
<g filter="url(#filter0_d_337_1697)">
<path fill-rule="evenodd" clip-rule="evenodd" d="M30.088 11.1765C30.3858 10.2754 31.3516 9.78834 32.2451 10.0887L32.9372 10.3214C34.3614 10.8002 35.565 11.2048 36.5114 11.6488C37.5174 12.1208 38.3903 12.7058 39.0521 13.632C39.714 14.5582 39.9883 15.5784 40.1141 16.6903C40.1784 17.2581 40.2077 17.8947 40.2212 18.6003H64.5631C69.2356 18.6003 71.5719 18.6003 72.5828 20.1466C73.5937 21.6929 72.6734 23.8587 70.8328 28.1903L69.8584 30.4836C68.999 32.5059 68.5694 33.5171 67.7151 34.0852C66.8608 34.6534 65.7701 34.6534 63.5886 34.6534H40.5807C40.8195 35.8915 41.1961 36.616 41.7308 37.1553C42.3601 37.79 43.2437 38.2039 44.9121 38.4301C46.6296 38.663 48.9059 38.6666 52.1697 38.6666H68.086C69.0279 38.6666 69.7914 39.4367 69.7914 40.3866C69.7914 41.3365 69.0279 42.1066 68.086 42.1066H52.0449C48.9353 42.1066 46.4289 42.1067 44.4576 41.8394C42.411 41.5618 40.6878 40.9681 39.3192 39.5877C37.9505 38.2074 37.3619 36.4693 37.0867 34.4051C36.8217 32.4169 36.8217 29.889 36.8218 26.7527L36.8218 20.6254C36.8218 18.9903 36.8192 17.9084 36.7255 17.0805C36.6367 16.2965 36.4818 15.9184 36.2853 15.6434C36.0888 15.3684 35.7821 15.1006 35.0728 14.7678C34.3237 14.4163 33.3069 14.0717 31.7689 13.5547L31.1665 13.3521C30.273 13.0518 29.7901 12.0777 30.088 11.1765ZM45.3484 23.7602C44.4066 23.7602 43.6431 24.5303 43.6431 25.4802C43.6431 26.4301 44.4066 27.2002 45.3484 27.2002H52.1697C53.1115 27.2002 53.875 26.4301 53.875 25.4802C53.875 24.5303 53.1115 23.7602 52.1697 23.7602H45.3484Z" fill="white"/>
<path d="M44.211 46.1199C46.0947 46.1199 47.6217 47.6601 47.6217 49.5599C47.6217 51.4597 46.0947 52.9998 44.211 52.9998C42.3274 52.9998 40.8004 51.4597 40.8004 49.5599C40.8004 47.6601 42.3274 46.1199 44.211 46.1199Z" fill="white"/>
<path d="M64.6749 46.1201C66.5586 46.1201 68.0856 47.6602 68.0856 49.5601C68.0856 51.4599 66.5586 53 64.6749 53C62.7913 53 61.2643 51.4599 61.2643 49.5601C61.2643 47.6602 62.7913 46.1201 64.6749 46.1201Z" fill="white"/>
</g>
<defs>
<filter id="filter0_d_337_1697" x="0" y="0" width="103" height="103" filterUnits="userSpaceOnUse" color-interpolation-filters="sRGB">
<feFlood flood-opacity="0" result="BackgroundImageFix"/>
<feColorMatrix in="SourceAlpha" type="matrix" values="0 0 0 0 0 0 0 0 0 0 0 0 0 0 0 0 0 0 127 0" result="hardAlpha"/>
<feOffset dy="20"/>
<feGaussianBlur stdDeviation="15"/>
<feComposite in2="hardAlpha" operator="out"/>
<feColorMatrix type="matrix" values="0 0 0 0 0.933333 0 0 0 0 0.337255 0 0 0 0 0.133333 0 0 0 0.3 0"/>
<feBlend mode="normal" in2="BackgroundImageFix" result="effect1_dropShadow_337_1697"/>
<feBlend mode="normal" in="SourceGraphic" in2="effect1_dropShadow_337_1697" result="shape"/>
</filter>
</defs>
</svg>
