<svg width="93" height="81" viewBox="0 0 93 81" fill="none"
    xmlns="http://www.w3.org/2000/svg">
    <rect width="93" height="81" rx="24" fill="#EBECEC"/>
    <path d="M21.795 49.0455V53.3182C21.795 56.3701 23.625 57.8961 25.76 57.8961H67.24C69.9239 57.8961 71.205 56.3701 71.205 53.9286V43.5519C68.9684 41.8225 63.8239 37.8143 61.14 35.6169C58.4561 33.4195 55.955 34.7013 55.04 35.6169C52.295 38.0584 46.2561 43.4909 44.06 45.6883C41.8639 47.8857 39.6884 46.6039 38.875 45.6883L35.825 42.6364C33.8729 40.6831 31.3516 41.8225 30.335 42.6364L21.795 49.0455Z" fill="white"/>
    <path d="M31.25 25.8506C28.7233 25.8506 26.675 27.9002 26.675 30.4286C26.675 32.9569 28.7233 35.0065 31.25 35.0065C33.7767 35.0065 35.825 32.9569 35.825 30.4286C35.825 27.9002 33.7767 25.8506 31.25 25.8506Z" fill="white"/>
    <path fill-rule="evenodd" clip-rule="evenodd" d="M16 27.0714C16 21.5091 20.5062 17 26.065 17H66.935C72.4938 17 77 21.5091 77 27.0714V53.9286C77 59.4908 72.4938 64 66.935 64H26.065C20.5062 64 16 59.4908 16 53.9286V27.0714ZM26.065 20.0519C22.1908 20.0519 19.05 23.1947 19.05 27.0714V53.9286C19.05 57.8053 22.1908 60.9481 26.065 60.9481H66.935C70.8092 60.9481 73.95 57.8053 73.95 53.9286V27.0714C73.95 23.1947 70.8092 20.0519 66.935 20.0519H26.065Z" fill="white"/>
</svg>
