<svg width="13" height="13" viewBox="0 0 13 13" fill="none" xmlns="http://www.w3.org/2000/svg">
<path fill-rule="evenodd" clip-rule="evenodd" d="M8.31395 0H9.52326C10.6634 0 11.2335 0 11.5877 0.366999C11.9419 0.733998 11.9419 1.32467 11.9419 2.50602V12.0602H12.5465C12.797 12.0602 13 12.2706 13 12.5301C13 12.7896 12.797 13 12.5465 13H0.453488C0.203034 13 0 12.7896 0 12.5301C0 12.2706 0.203034 12.0602 0.453488 12.0602H1.05814V4.38554C1.05814 3.20419 1.05814 2.61352 1.41234 2.24652C1.76653 1.87952 2.3366 1.87952 3.47674 1.87952H5.89535C7.03549 1.87952 7.60556 1.87952 7.95976 2.24652C8.31395 2.61352 8.31395 3.20419 8.31395 4.38554V12.0602H9.22093V4.38554L9.22093 4.32948C9.221 3.78715 9.22105 3.28991 9.16857 2.88543C9.11077 2.44001 8.97479 1.96922 8.60109 1.58201C8.22738 1.1948 7.77302 1.0539 7.34313 0.994014C6.95825 0.940398 6.48636 0.9397 5.97154 0.939752C6.02251 0.697142 6.10757 0.514102 6.24955 0.366999C6.60374 0 7.17381 0 8.31395 0ZM2.4186 3.75904C2.4186 3.49953 2.62164 3.28916 2.87209 3.28916H6.5C6.75045 3.28916 6.95349 3.49953 6.95349 3.75904C6.95349 4.01854 6.75045 4.22892 6.5 4.22892H2.87209C2.62164 4.22892 2.4186 4.01854 2.4186 3.75904ZM2.4186 5.63855C2.4186 5.37905 2.62164 5.16867 2.87209 5.16867H6.5C6.75045 5.16867 6.95349 5.37905 6.95349 5.63855C6.95349 5.89806 6.75045 6.10843 6.5 6.10843H2.87209C2.62164 6.10843 2.4186 5.89806 2.4186 5.63855ZM2.4186 7.51807C2.4186 7.25856 2.62164 7.04819 2.87209 7.04819H6.5C6.75045 7.04819 6.95349 7.25856 6.95349 7.51807C6.95349 7.77758 6.75045 7.98795 6.5 7.98795H2.87209C2.62164 7.98795 2.4186 7.77758 2.4186 7.51807ZM4.68605 10.1807C4.9365 10.1807 5.13953 10.3911 5.13953 10.6506V12.0602H4.23256V10.6506C4.23256 10.3911 4.43559 10.1807 4.68605 10.1807Z" fill="#F5F5F5"/>
</svg>
