<svg width="12" height="12" viewBox="0 0 12 12" fill="none" xmlns="http://www.w3.org/2000/svg">
<path fill-rule="evenodd" clip-rule="evenodd" d="M0.31152 3.49364C0 4.06277 0 4.74929 0 6.12235V7.03497C0 9.37551 0 10.5458 0.702944 11.2729C1.40589 12 2.53726 12 4.8 12H7.2C9.46274 12 10.5941 12 11.2971 11.2729C12 10.5458 12 9.37551 12 7.03497V6.12235C12 4.74929 12 4.06277 11.6885 3.49364C11.377 2.92452 10.8078 2.57131 9.66958 1.86488L8.46958 1.12012C7.26637 0.373374 6.66476 0 6 0C5.33524 0 4.73363 0.373374 3.53042 1.12012L2.33042 1.86488C1.19217 2.57131 0.62304 2.92452 0.31152 3.49364ZM4.2 9.15C3.95147 9.15 3.75 9.35147 3.75 9.6C3.75 9.84853 3.95147 10.05 4.2 10.05H7.8C8.04853 10.05 8.25 9.84853 8.25 9.6C8.25 9.35147 8.04853 9.15 7.8 9.15H4.2Z" fill="#ffffff"/>
</svg>
