<svg width="12" height="12" viewBox="0 0 12 12" fill="none" xmlns="http://www.w3.org/2000/svg">
<path d="M7.87566 9.04629C7.98703 8.95942 8.08803 8.85842 8.29004 8.65641L10.8084 6.13807C10.8693 6.07718 10.8414 5.97231 10.7601 5.94409C10.4628 5.84096 10.0761 5.64734 9.71439 5.28562C9.35266 4.9239 9.15904 4.53721 9.05591 4.23995C9.02769 4.1586 8.92282 4.13073 8.86193 4.19162L6.34359 6.70996C6.14158 6.91197 6.04058 7.01298 5.95371 7.12434C5.85125 7.25571 5.7634 7.39786 5.69172 7.54826C5.63096 7.67576 5.58579 7.81127 5.49545 8.08229L5.37871 8.43248L5.1931 8.98933L5.01906 9.51146C4.9746 9.64483 5.00931 9.79187 5.10872 9.89128C5.20813 9.99069 5.35517 10.0254 5.48854 9.98094L6.01067 9.8069L6.56752 9.62128L6.91771 9.50455L6.91773 9.50455C7.18874 9.41421 7.32425 9.36904 7.45174 9.30828C7.60214 9.2366 7.74429 9.14875 7.87566 9.04629Z" fill="#F5F5F5"/>
<path d="M11.5969 5.34957C12.1344 4.81207 12.1344 3.94062 11.5969 3.40312C11.0594 2.86563 10.1879 2.86563 9.65043 3.40312L9.56947 3.48409C9.49134 3.56221 9.45594 3.67134 9.47546 3.78009C9.48774 3.8485 9.5105 3.94852 9.55191 4.06787C9.63471 4.30654 9.79109 4.61985 10.0856 4.91438C10.3801 5.20891 10.6935 5.36529 10.9321 5.4481C11.0515 5.4895 11.1515 5.51226 11.2199 5.52454C11.3287 5.54406 11.4378 5.50866 11.5159 5.43053L11.5969 5.34957Z" fill="#F5F5F5"/>
<path fill-rule="evenodd" clip-rule="evenodd" d="M0.715961 0.702944C0 1.40589 0 2.53726 0 4.8V7.2C0 9.46274 0 10.5941 0.715961 11.2971C1.43192 12 2.58424 12 4.88889 12H6.11111C8.41576 12 9.56808 12 10.284 11.2971C10.9885 10.6054 10.9998 9.49894 11 7.30804L9.27771 8.99903C9.11285 9.16101 8.97783 9.29367 8.82534 9.41044C8.64668 9.54726 8.45338 9.66455 8.24884 9.76026C8.07427 9.84194 7.89304 9.90119 7.67177 9.97352L6.25906 10.4358C5.80159 10.5856 5.29723 10.4687 4.95625 10.1339C4.61527 9.79911 4.49621 9.30392 4.6487 8.85477L4.81583 8.36248L5.10618 7.50727L5.11958 7.46779C5.19325 7.25051 5.2536 7.07257 5.3368 6.90116C5.43427 6.70035 5.55374 6.51055 5.69309 6.33515C5.81203 6.18543 5.94716 6.05285 6.11214 5.89098L8.56053 3.48713L9.23998 2.82003L9.31773 2.74369C9.75492 2.31445 10.328 2.09989 10.901 2.1C10.8085 1.48167 10.6297 1.04236 10.284 0.702944C9.56808 0 8.41576 0 6.11111 0H4.88889C2.58424 0 1.43192 0 0.715961 0.702944ZM2.59722 4.2C2.59722 3.95147 2.80242 3.75 3.05556 3.75H7.02778C7.28091 3.75 7.48611 3.95147 7.48611 4.2C7.48611 4.44853 7.28091 4.65 7.02778 4.65H3.05556C2.80242 4.65 2.59722 4.44853 2.59722 4.2ZM2.59722 6.6C2.59722 6.35147 2.80242 6.15 3.05556 6.15H4.58333C4.83646 6.15 5.04167 6.35147 5.04167 6.6C5.04167 6.84853 4.83646 7.05 4.58333 7.05H3.05556C2.80242 7.05 2.59722 6.84853 2.59722 6.6ZM2.59722 9C2.59722 8.75147 2.80242 8.55 3.05556 8.55H3.97222C4.22535 8.55 4.43056 8.75147 4.43056 9C4.43056 9.24853 4.22535 9.45 3.97222 9.45H3.05556C2.80242 9.45 2.59722 9.24853 2.59722 9Z" fill="#F5F5F5"/>
</svg>
