<svg width="12" height="13" viewBox="0 0 12 13" fill="none" xmlns="http://www.w3.org/2000/svg">
<path d="M4.33333 0C3.78105 0 3.33333 0.43656 3.33333 0.975085V1.62514C3.33333 2.16367 3.78105 2.60023 4.33333 2.60023H7.66667C8.21895 2.60023 8.66667 2.16367 8.66667 1.62514V0.975085C8.66667 0.43656 8.21895 0 7.66667 0H4.33333Z" fill="#F5F5F5"/>
<path fill-rule="evenodd" clip-rule="evenodd" d="M2.33333 1.32392C1.49473 1.36979 0.965322 1.5001 0.585786 1.87017C0 2.44137 0 3.36068 0 5.19932V9.09966C0 10.9383 0 11.8576 0.585786 12.4288C1.17157 13 2.11438 13 4 13H8C9.88562 13 10.8284 13 11.4142 12.4288C12 11.8576 12 10.9383 12 9.09966V5.19932C12 3.36068 12 2.44137 11.4142 1.87017C11.0347 1.5001 10.5053 1.36979 9.66667 1.32392V1.62514C9.66667 2.70219 8.77124 3.57531 7.66667 3.57531H4.33333C3.22876 3.57531 2.33333 2.70219 2.33333 1.62514V1.32392ZM2.66667 5.03794C2.39052 5.03794 2.16667 5.25622 2.16667 5.52548C2.16667 5.79474 2.39052 6.01302 2.66667 6.01302H3C3.27614 6.01302 3.5 5.79474 3.5 5.52548C3.5 5.25622 3.27614 5.03794 3 5.03794H2.66667ZM5 5.03794C4.72386 5.03794 4.5 5.25622 4.5 5.52548C4.5 5.79474 4.72386 6.01302 5 6.01302H9.33333C9.60948 6.01302 9.83333 5.79474 9.83333 5.52548C9.83333 5.25622 9.60948 5.03794 9.33333 5.03794H5ZM2.66667 7.31314C2.39052 7.31314 2.16667 7.53142 2.16667 7.80068C2.16667 8.06994 2.39052 8.28822 2.66667 8.28822H3C3.27614 8.28822 3.5 8.06994 3.5 7.80068C3.5 7.53142 3.27614 7.31314 3 7.31314H2.66667ZM5 7.31314C4.72386 7.31314 4.5 7.53142 4.5 7.80068C4.5 8.06994 4.72386 8.28822 5 8.28822H9.33333C9.60948 8.28822 9.83333 8.06994 9.83333 7.80068C9.83333 7.53142 9.60948 7.31314 9.33333 7.31314H5ZM2.66667 9.58833C2.39052 9.58833 2.16667 9.80661 2.16667 10.0759C2.16667 10.3451 2.39052 10.5634 2.66667 10.5634H3C3.27614 10.5634 3.5 10.3451 3.5 10.0759C3.5 9.80661 3.27614 9.58833 3 9.58833H2.66667ZM5 9.58833C4.72386 9.58833 4.5 9.80661 4.5 10.0759C4.5 10.3451 4.72386 10.5634 5 10.5634H9.33333C9.60948 10.5634 9.83333 10.3451 9.83333 10.0759C9.83333 9.80661 9.60948 9.58833 9.33333 9.58833H5Z" fill="#F5F5F5"/>
</svg>
